<svg xmlns="http://www.w3.org/2000/svg" xmlns:xlink="http://www.w3.org/1999/xlink" style="enable-background:new 0 0 86 46" id="Layer_1" x="0" y="0" version="1.1" viewBox="0 0 86 46" xml:space="preserve"><style type="text/css"/><g><g><g><g><defs><path id="SVGID_1_" d="M60.8,0L60.8,0c-3.4,0-6.3,1.9-7.7,4.7L41.6,27c-1.3-2.3-3.3-4.1-5.8-5.1c2.8-2,4.6-5.3,4.6-9 c0-4.3-2.4-8-6-9.8c-3.1-1.6-6.7-2.6-10.5-2.6H6.7c-3.6,0-6.4,2.9-6.4,6.4v32.1c0,3.5,2.9,6.4,6.4,6.4h6.2h12.4 c3.6,0,7-0.7,10.1-2.1l1.2-0.6c0.1,0,0.1-0.1,0.2-0.1C38,44.7,40,46,42.3,46c2.6,0,4.8-1.5,5.8-3.8c0.5-1.2,1.6-2,3-2.1h19.4 c1.3,0.1,2.5,0.9,3,2.1c1,2.2,3.2,3.8,5.8,3.8c3.5,0,6.4-2.9,6.4-6.4c0-1.2-0.3-2.2-0.8-3.2L68.5,4.7C67.1,1.9,64.2,0,60.8,0 C60.9,0,60.8,0,60.8,0z"/></defs><clipPath id="SVGID_00000081611351826055362230000000497405366446930066_"><use style="overflow:visible" xlink:href="#SVGID_1_"/></clipPath><linearGradient id="SVGID_00000029025556048034790020000003009172774613033659_" x1="-1918.911" x2="-1918.491" y1="33.335" y2="33.335" gradientTransform="matrix(-3.000000e-06 -69.3731 69.3731 -3.000000e-06 -2269.5674 -133077.9219)" gradientUnits="userSpaceOnUse"><stop style="stop-color:#27b7ea" offset="0"/><stop style="stop-color:#1abbec" offset=".029"/><stop style="stop-color:#3dc4e1" offset=".087"/><stop style="stop-color:#82cfcc" offset=".168"/><stop style="stop-color:#aadac3" offset=".212"/><stop style="stop-color:#c9e3b6" offset=".31"/><stop style="stop-color:#edefa6" offset=".416"/><stop style="stop-color:#efea92" offset=".513"/><stop style="stop-color:#f4e162" offset=".709"/><stop style="stop-color:#fbd115" offset=".984"/><stop style="stop-color:#fad012" offset="1"/><stop style="stop-color:#fad704" offset="1"/></linearGradient><rect width="85.5" height="46" x=".2" y="0" style="clip-path:url(#SVGID_00000081611351826055362230000000497405366446930066_);fill:url(#SVGID_00000029025556048034790020000003009172774613033659_)"/></g></g></g></g></svg>