<?xml version="1.0" encoding="UTF-8" ?>
<!DOCTYPE svg PUBLIC "-//W3C//DTD SVG 1.1//EN" "http://www.w3.org/Graphics/SVG/1.1/DTD/svg11.dtd">
<svg width="258pt" height="512pt" viewBox="0 0 258 512" version="1.1" xmlns="http://www.w3.org/2000/svg">
<g id="#ffffffff">
<path fill="#ffffff" opacity="1.00" d=" M 171.45 0.00 L 224.51 0.00 C 235.68 0.95 246.84 1.92 258.00 3.00 L 258.00 85.01 C 237.01 85.48 215.78 83.39 194.99 87.10 C 188.62 87.88 182.80 90.96 177.76 94.79 C 168.95 103.72 167.05 116.96 167.06 128.97 C 166.69 149.97 167.07 170.97 167.03 191.97 C 194.66 192.10 222.28 191.90 249.91 192.02 C 246.11 222.24 242.36 252.47 238.57 282.69 C 214.73 283.25 190.88 282.92 167.03 283.02 C 166.94 359.35 167.03 435.67 167.00 512.00 L 75.00 512.00 C 74.97 435.67 75.05 359.35 74.97 283.02 C 49.98 282.95 24.99 283.01 0.00 283.00 L 0.00 192.00 C 24.99 191.99 49.98 192.06 74.97 191.97 C 75.16 167.97 74.79 143.98 75.03 119.98 C 75.11 106.95 76.29 93.89 79.22 81.18 C 84.81 58.28 96.93 36.29 115.95 21.93 C 131.94 9.49 151.68 3.18 171.45 0.00 Z" />
</g>
</svg>
