<svg xmlns="http://www.w3.org/2000/svg" xmlns:xlink="http://www.w3.org/1999/xlink" width="64" height="64" viewBox="0 0 64 64"><defs><style>.a{fill:none;}.b{clip-path:url(#a);}.c{fill:#f3f6f9;}.d{fill:#fff;}.e{fill:#fbd100;}.f{fill:#4d4d4d;}</style><clipPath id="a"><circle class="a" cx="32" cy="32" r="32" transform="translate(22269.957 9602.957)"/></clipPath></defs><g class="b" transform="translate(-22269.957 -9602.957)"><g transform="translate(22258.895 9594.954)"><circle class="c" cx="32" cy="32" r="32" transform="translate(11.063 8.003)"/><g transform="translate(0 0)"><g transform="translate(10.523 0.799)"><path class="d" d="M2043.486-1013.675l1.331-4.175a4.055,4.055,0,0,1,4.3-2.8l6.082.664a3.446,3.446,0,0,0,3.732-2.66,9.888,9.888,0,0,1,.5-1.7c1.027-.843,1.873-2.478.976-3.244-1.337-.452-2.446-1.1-2.119-2.868a.5.5,0,0,1,.365-.4l3.429-.882.313-2.94c2.024-.566,4.452-1,4.664-3.23-.425-4.039-4.61-8.027-4.5-10.685,1.8-.594,2.288-2.613,1.563-4.786.725-3.622-.718-9.2-2.186-11.128,0,0,3.125-.068,3.231-2.618s-7.757-13.178-27.844-14.241c-10.042-.532-16.034,4-19.6,8.974a25.76,25.76,0,0,0-3.983,20.714c2.139,9.451,6.739,16.669,6.793,19.2a8.6,8.6,0,0,1-2.435,5.719" transform="translate(-2013.069 1081.414)"/></g><g transform="translate(26.818 51.469)"><path class="e" d="M2156.134-725.871a49.406,49.406,0,0,0-7.954-.05,33.76,33.76,0,0,0-4.4.648,3.258,3.258,0,0,1-1.994-.16,3.749,3.749,0,0,0-1.5-.312,3.78,3.78,0,0,0-3.441,2.217,3.5,3.5,0,0,1-1.3,1.548,22.815,22.815,0,0,0-2.848,2.105,19.492,19.492,0,0,0-5.346,7.392l6.44,2.12a13.245,13.245,0,0,1,2.838-5.581,16.874,16.874,0,0,1,1.2-1.3,3.45,3.45,0,0,1,2.447-.937h.013a3.779,3.779,0,0,0,3.412-2.155,3.12,3.12,0,0,1,1.739-1.557,30.747,30.747,0,0,1,3.235-1,46.826,46.826,0,0,1,7.466-1.177Z" transform="translate(-2127.347 726.059)"/></g><g transform="translate(10.919 0.857)"><path class="f" d="M2064.328-1062.6a31.741,31.741,0,0,1-9.216.06,2.016,2.016,0,0,0-2.249,1.489c-1.7,6.356-8.218,6.071-8.471,9.127-.3,3.669-3.359,4.367-4.775,3.823-.668-5.038-1.564-5.77-4.832-5.552a4.648,4.648,0,0,0-3.858,2.9,9.379,9.379,0,0,0,1.177,7.613s-7.465,5.978-9.189,10.994l-7.066-21.525,1.307-13.945,7.844-9.914,10.786-3.486,16.45,1.743,12.638,7.517,2.288,5.012s2.665,3.342-2.833,4.14" transform="translate(-2015.848 1081.009)"/></g><g transform="translate(49.651 28.82)"><path class="f" d="M2295.342-881.015a7.574,7.574,0,0,0-7.385-1.567c-1.784-1.076,1.8-1.5,4.835-2.25a2.282,2.282,0,0,1,1.526.156c1.37.646,3.308,1.759,2.619,3.172C2296.571-880.8,2295.84-880.575,2295.342-881.015Z" transform="translate(-2287.48 884.898)"/></g><g transform="translate(52.715 33.054)"><path class="f" d="M2313.594-852.93c-.217-.691-.453-1.372-.738-2.044a.382.382,0,0,0-.384-.231.382.382,0,0,0-.349.412,2.925,2.925,0,0,1,.217,2.325,8.36,8.36,0,0,1-3.172.543h-.014c-.785.422,1.08.768,1.607.808.949.072,2.324.365,2.863-.486a1.211,1.211,0,0,0,.087-.43A4.273,4.273,0,0,0,2313.594-852.93Zm-1.15.54a.027.027,0,0,1,0,0C2312.441-852.364,2312.434-852.358,2312.443-852.391Z" transform="translate(-2308.965 855.206)"/></g><g transform="translate(55.674 43.311)"><path class="f" d="M2331.325-779.893a.477.477,0,0,1-.124-.016,2.025,2.025,0,0,1-1.385-1.306,2.026,2.026,0,0,1,.33-1.874.48.48,0,0,1,.674-.079.48.48,0,0,1,.079.674,1.071,1.071,0,0,0-.172.978,1.07,1.07,0,0,0,.722.681.48.48,0,0,1,.34.587A.48.48,0,0,1,2331.325-779.893Z" transform="translate(-2329.716 783.271)"/></g><g transform="translate(58.49 44.384)"><path class="f" d="M2351.832-775.654a.326.326,0,0,1,.075.617,3.808,3.808,0,0,1-2.13.286.387.387,0,0,1-.293-.518c.151-.587,1.5-.527,2.348-.385" transform="translate(-2349.463 775.749)"/></g><g transform="translate(0 53.505)"><path class="f" d="M1951.7-711.784l31.138,14.372.479,4.4-44.048-.57c5.778-12.426,12.431-18.2,12.431-18.2" transform="translate(-1939.27 711.784)"/></g><g transform="translate(40.322 44.487)"><path class="e" d="M2224.263-774.979l-2.208,2.326,1.38.283L2222.1-770l2.155.12.786-2.925-1.048-.392.526-1.631a.151.151,0,0,0-.253-.15" transform="translate(-2222.055 775.027)"/></g><g transform="translate(34.281 42.145)"><path class="e" d="M2179.952-791.4l-.269,6.025,1.571-.791.525,3.356,2.2-1.549-1.493-3.475-1.33.427-.843-4.042" transform="translate(-2179.683 791.449)"/></g><g transform="translate(30.014 50.706)"><path class="e" d="M2149.789-731.106l1.811,2.648.565-1.29,2.037,1.8.57-2.081-2.7-1.383-.6.943-1.485-.857a.151.151,0,0,0-.2.216" transform="translate(-2149.762 731.408)"/></g><g transform="translate(25.458 37.365)"><path class="f" d="M2119.109-824.578A7.164,7.164,0,0,0,2121.14-822a2.817,2.817,0,0,0,1.307.7,1.143,1.143,0,0,0,1.068-.629l.005-.011a.368.368,0,0,1,.488-.179.368.368,0,0,1,.189.462,1.948,1.948,0,0,1-1.752,1.247,2.347,2.347,0,0,1-1.077-.258,7.617,7.617,0,0,1-.84-.485,8.362,8.362,0,0,1-2.623-2.8l0,0a.68.68,0,0,1,.251-.928.679.679,0,0,1,.927.251c.01.017.019.035.028.053" transform="translate(-2117.813 824.972)"/></g><g transform="translate(27.039 29.404)"><path class="f" d="M2134.275-878a2.825,2.825,0,0,0-1.709-1.4,2.341,2.341,0,0,0-.525-.072,1.812,1.812,0,0,0-.263.01l-.129.018-.095.025a1.667,1.667,0,0,0-.8.576,2.978,2.978,0,0,0-.553,1.015,3.811,3.811,0,0,0-.211,1.2,6.611,6.611,0,0,0,.465,2.551.346.346,0,0,1-.2.447.347.347,0,0,1-.419-.145,6.345,6.345,0,0,1-.926-2.831,4.525,4.525,0,0,1,.842-3.034,2.935,2.935,0,0,1,1.425-1.054c.08-.023.165-.049.243-.066l.218-.03a3.1,3.1,0,0,1,.436-.017,2.957,2.957,0,0,1,.855.138,3.214,3.214,0,0,1,1.436.9,3.362,3.362,0,0,1,.77,1.424.464.464,0,0,1-.334.565.463.463,0,0,1-.515-.214Z" transform="translate(-2128.895 880.803)"/></g><g transform="translate(27.48 31.749)"><path class="f" d="M2132.839-864.064a3.225,3.225,0,0,0,1.174,1.356,3.07,3.07,0,0,1,.77.812,2.594,2.594,0,0,1,.377,1.057.227.227,0,0,1-.2.253.226.226,0,0,1-.248-.171v0a2.081,2.081,0,0,0-.4-.81,2.488,2.488,0,0,0-.7-.583,6.665,6.665,0,0,1-.87-.636,2.983,2.983,0,0,1-.714-.93l-.007-.015a.436.436,0,0,1,.207-.582.437.437,0,0,1,.583.207c.007.015.013.03.019.045" transform="translate(-2131.989 864.358)"/></g><g transform="translate(54.813 36.297)"><path class="f" d="M2325.487-831.847a2.508,2.508,0,0,1-.187.61,2.427,2.427,0,0,1-.319.523,2.86,2.86,0,0,1-.409.421c-.074.061-.15.12-.229.174a2.634,2.634,0,0,1-.255.156.278.278,0,0,1-.377-.112.278.278,0,0,1,.053-.335l.029-.027c.042-.04.1-.1.152-.153s.1-.115.144-.174a2.122,2.122,0,0,0,.225-.377,1.585,1.585,0,0,0,.127-.392,1.535,1.535,0,0,0,.022-.386v-.011a.517.517,0,0,1,.5-.532.517.517,0,0,1,.532.5A.52.52,0,0,1,2325.487-831.847Z" transform="translate(-2323.678 832.463)"/></g><path class="f" d="M2038.676-1017.68a.8.8,0,0,1-.243-.038.8.8,0,0,1-.519-1l1.331-4.175a4.87,4.87,0,0,1,5.151-3.351l6.082.664a2.649,2.649,0,0,0,2.866-2.044,10.582,10.582,0,0,1,.547-1.845.8.8,0,0,1,.225-.3,2.82,2.82,0,0,0,1.063-1.751.414.414,0,0,0-.033-.186c-.966-.34-2.916-1.185-2.451-3.7a1.307,1.307,0,0,1,.954-1.03l2.89-.744.255-2.389a.8.8,0,0,1,.58-.685c.188-.053.38-.1.574-.156,2.057-.553,3.331-.989,3.5-2.3-.228-1.9-1.414-3.9-2.463-5.67-1.125-1.9-2.1-3.535-2.036-5.047a.8.8,0,0,1,.548-.727,1.777,1.777,0,0,0,1.071-.914,3.865,3.865,0,0,0-.015-2.861.805.805,0,0,1-.026-.41c.683-3.413-.745-8.788-2.039-10.487a.8.8,0,0,1-.084-.831.8.8,0,0,1,.7-.452c.24-.007,2.378-.12,2.45-1.853.038-.921-1.735-4.013-6.008-6.989-3.761-2.619-10.47-5.859-21.079-6.42-8.127-.43-14.489,2.477-18.909,8.641a24.963,24.963,0,0,0-3.853,20.072,74.588,74.588,0,0,0,4.784,13.552c1.162,2.661,2,4.583,2.028,5.806a9.359,9.359,0,0,1-2.677,6.31.8.8,0,0,1-1.13-.017.8.8,0,0,1,.017-1.13,7.854,7.854,0,0,0,2.193-5.129c-.019-.906-.888-2.9-1.895-5.2a75.948,75.948,0,0,1-4.879-13.839,26.562,26.562,0,0,1,4.113-21.356,22.116,22.116,0,0,1,7.649-6.793,24.01,24.01,0,0,1,12.644-2.513c10.985.581,17.977,3.967,21.908,6.7,4.444,3.095,6.765,6.621,6.692,8.368a3.425,3.425,0,0,1-2.733,3.182,19.569,19.569,0,0,1,1.713,10.48,5.268,5.268,0,0,1-.138,3.881,3.341,3.341,0,0,1-1.413,1.463,13.536,13.536,0,0,0,1.776,3.693c1.147,1.935,2.448,4.128,2.687,6.4a.808.808,0,0,1,0,.159c-.245,2.579-2.708,3.241-4.686,3.772l-.037.01-.256,2.4a.8.8,0,0,1-.6.689l-3.234.832c-.115.906.292,1.339,1.617,1.787a.8.8,0,0,1,.263.15,1.881,1.881,0,0,1,.658,1.5,4.25,4.25,0,0,1-1.487,2.833,10.905,10.905,0,0,0-.387,1.4,4.247,4.247,0,0,1-4.6,3.277l-6.082-.664a3.266,3.266,0,0,0-3.455,2.247l-1.331,4.175A.8.8,0,0,1,2038.676-1017.68Zm15.37-17.21h0Z" transform="translate(-1997.736 1087.017)"/></g></g></g></svg>