<svg xmlns="http://www.w3.org/2000/svg" xmlns:xlink="http://www.w3.org/1999/xlink" width="64" height="64" viewBox="0 0 64 64"><defs><style>.a,.e{fill:none;}.b{fill:#f3f6f9;}.c{clip-path:url(#a);}.d{fill:#4d4d4d;}.e{stroke:#4d4d4d;stroke-miterlimit:10;stroke-width:6px;}.f{fill:#fff;}.g{fill:#fbd200;}</style><clipPath id="a"><circle class="a" cx="32" cy="32" r="32"/></clipPath></defs><g transform="translate(-184.026 -242.028)"><circle class="b" cx="32" cy="32" r="32" transform="translate(184.026 242.028)"/><g transform="translate(184.026 242.028)"><g class="c"><g transform="translate(24.293 4.098)"><path class="d" d="M263.377,275.471q0,7.139,0,14.278a7.69,7.69,0,0,1-4.1,7.335,1.339,1.339,0,0,0-.688,1.434c.008,3.143.024,6.285-.022,9.428a2.847,2.847,0,0,1-2.41,2.821,3,3,0,0,1-3.171-1.761,4.123,4.123,0,0,1-.215-1.72c-.01-2.873-.024-5.747.009-8.62a1.634,1.634,0,0,0-.919-1.7,7.238,7.238,0,0,1-3.84-6.527c-.055-10.056-.073-20.114,0-30.17a7.666,7.666,0,0,1,15.328.122c.068,5.028.016,10.057.016,15.085Zm-9.41,25.324c-.016,2.332-.043,4.664-.044,7a1.765,1.765,0,1,0,3.521,0c.021-2.332-.021-4.664-.038-7,.017-.894.1-1.793.034-2.679a1.724,1.724,0,0,1,1.238-2.049,3.77,3.77,0,0,0,2.011-1.695,5.538,5.538,0,0,0,1.551-4.158c.027-9.923.059-19.847-.018-29.77a5.817,5.817,0,0,0-3.706-5.721,6.394,6.394,0,0,0-9.362,5.674c-.083,9.961-.037,19.923-.016,29.886,0,1.979.609,4.031,2.338,4.882,2.509,1.234,2.662,3.113,2.452,5.365a1.136,1.136,0,0,0,.039.265" transform="translate(-247.977 -252.816)"/><path class="e" d="M263.377,275.471q0,7.139,0,14.278a7.69,7.69,0,0,1-4.1,7.335,1.339,1.339,0,0,0-.688,1.434c.008,3.143.024,6.285-.022,9.428a2.847,2.847,0,0,1-2.41,2.821,3,3,0,0,1-3.171-1.761,4.123,4.123,0,0,1-.215-1.72c-.01-2.873-.024-5.747.009-8.62a1.634,1.634,0,0,0-.919-1.7,7.238,7.238,0,0,1-3.84-6.527c-.055-10.056-.073-20.114,0-30.17a7.666,7.666,0,0,1,15.328.122c.068,5.028.016,10.057.016,15.085Zm-9.41,25.324c-.016,2.332-.043,4.664-.044,7a1.765,1.765,0,1,0,3.521,0c.021-2.332-.021-4.664-.038-7,.017-.894.1-1.793.034-2.679a1.724,1.724,0,0,1,1.238-2.049,3.77,3.77,0,0,0,2.011-1.695,5.538,5.538,0,0,0,1.551-4.158c.027-9.923.059-19.847-.018-29.77a5.817,5.817,0,0,0-3.706-5.721,6.394,6.394,0,0,0-9.362,5.674c-.083,9.961-.037,19.923-.016,29.886,0,1.979.609,4.031,2.338,4.882,2.509,1.234,2.662,3.113,2.452,5.365A1.136,1.136,0,0,0,253.967,300.8Z" transform="translate(-247.977 -252.816)"/><path class="f" d="M255.659,302.437c-.016,2.332-.043,4.663-.044,7a1.765,1.765,0,1,0,3.521,0c.021-2.331-.021-4.663-.038-6.995.017-.893.1-1.793.034-2.679a1.724,1.724,0,0,1,1.238-2.049,3.771,3.771,0,0,0,2.011-1.695,5.538,5.538,0,0,0,1.551-4.158c.027-9.923.059-19.847-.018-29.77a5.818,5.818,0,0,0-3.706-5.721,6.394,6.394,0,0,0-9.362,5.675c-.083,9.961-.037,19.923-.016,29.885,0,1.98.609,4.032,2.338,4.882,2.509,1.233,2.662,3.112,2.452,5.364a1.161,1.161,0,0,0,.04.266" transform="translate(-249.726 -254.569)"/><path class="d" d="M267.783,288.864a.715.715,0,0,0-1.169,0q-.033-7.872-.063-15.746c0-.474.062-.981.656-.98s.655.511.653.983q-.037,7.872-.076,15.745" transform="translate(-259.495 -264.797)"/><path class="d" d="M275.633,291.783h-2.221a.6.6,0,0,1,0-1.2h2.221a.6.6,0,1,1,0,1.2" transform="translate(-263.378 -276.236)"/><path class="d" d="M275.633,316.906h-2.221a.6.6,0,1,1,0-1.2h2.221a.6.6,0,1,1,0,1.2" transform="translate(-263.378 -291.816)"/><path class="d" d="M275.633,342.028h-2.221a.6.6,0,1,1,0-1.2h2.221a.6.6,0,1,1,0,1.2" transform="translate(-263.378 -307.395)"/><path class="d" d="M277.338,304.107h-1.08a.6.6,0,0,1,0-1.2h1.08a.6.6,0,1,1,0,1.2" transform="translate(-265.142 -283.879)"/><path class="d" d="M277.338,329.23h-1.08a.6.6,0,0,1,0-1.2h1.08a.6.6,0,1,1,0,1.2" transform="translate(-265.142 -299.458)"/><path class="d" d="M277.338,354.353h-1.08a.6.6,0,1,1,0-1.2h1.08a.6.6,0,1,1,0,1.2" transform="translate(-265.142 -315.038)"/><path class="g" d="M266.015,292.581c.015,7.614,0,23.711-.009,31.324,0,.818.022,1.48,1.107,1.282.016,2.353.058,4.705.038,7.057a1.765,1.765,0,1,1-3.521,0c0-2.352.028-4.7.044-7.057,1.085.2,1.109-.463,1.107-1.282q-.029-10.538-.009-21.077c0-.588-.015-9.654,0-10.243a.79.79,0,0,1,1.248,0" transform="translate(-257.684 -277.287)"/></g></g></g></g></svg>