<svg xmlns="http://www.w3.org/2000/svg" width="16" height="16" viewBox="0 0 16 16"><defs><style>.a{fill:none;}.b{fill:#0072bb;}</style></defs><path class="a" d="M0,0H16V16H0Z"/><path class="b" d="M13,13.667H5A.669.669,0,0,1,4.333,13V5A.669.669,0,0,1,5,4.333H8.333A.667.667,0,0,0,8.333,3h-4A1.333,1.333,0,0,0,3,4.333v9.333A1.337,1.337,0,0,0,4.333,15h9.333A1.337,1.337,0,0,0,15,13.667v-4a.667.667,0,1,0-1.333,0V13A.669.669,0,0,1,13,13.667Zm-2.667-10A.669.669,0,0,0,11,4.333h1.727L6.64,10.42a.665.665,0,0,0,.94.94l6.087-6.087V7A.667.667,0,1,0,15,7V3.667A.669.669,0,0,0,14.333,3H11A.669.669,0,0,0,10.333,3.667Z" transform="translate(-1 -1)"/></svg>