<svg xmlns="http://www.w3.org/2000/svg" xmlns:xlink="http://www.w3.org/1999/xlink" width="64" height="64" viewBox="0 0 64 64"><defs><style>.a{fill:none;}.b{fill:#f3f6f9;}.c{clip-path:url(#a);}.d{fill:#fff;}.e{fill:#4d4d4d;}.f{fill:#fbd100;}</style><clipPath id="a"><circle class="a" cx="32" cy="32" r="32"/></clipPath></defs><g transform="translate(-2957.849 1030.895)"><circle class="b" cx="32" cy="32" r="32" transform="translate(2957.849 -1030.895)"/><g transform="translate(2957.849 -1030.895)"><g class="c"><g transform="translate(-11.063 -8.003)"><g transform="translate(9.723)"><path class="d" d="M2984.482-1013.675l1.331-4.175a4.055,4.055,0,0,1,4.3-2.8l6.082.664a3.446,3.446,0,0,0,3.732-2.66,9.89,9.89,0,0,1,.5-1.7c1.028-.843,1.873-2.478.976-3.244-1.337-.452-2.446-1.1-2.119-2.868a.5.5,0,0,1,.365-.4l3.429-.882.313-2.941c2.024-.566,4.452-1,4.664-3.23-.425-4.038-4.61-8.027-4.5-10.685s2.236-2.362,2.2-5.229-.958-5.11-2.272-11.067a2.307,2.307,0,0,0,2.685-2.237c.106-2.551-7.757-13.178-27.844-14.241-10.042-.532-16.034,4-19.6,8.974a25.758,25.758,0,0,0-3.983,20.714c2.138,9.451,6.739,16.669,6.793,19.2a8.6,8.6,0,0,1-2.435,5.719" transform="translate(-2953.265 1082.213)"/><path class="e" d="M2979.672-1017.68a.8.8,0,0,1-.243-.038.8.8,0,0,1-.519-1l1.331-4.175a4.869,4.869,0,0,1,5.151-3.351l6.082.664a2.649,2.649,0,0,0,2.866-2.044,10.56,10.56,0,0,1,.547-1.845.8.8,0,0,1,.225-.3,2.819,2.819,0,0,0,1.063-1.75.413.413,0,0,0-.033-.186c-.966-.34-2.916-1.185-2.451-3.7a1.307,1.307,0,0,1,.954-1.03l2.89-.744.255-2.389a.8.8,0,0,1,.579-.685c.189-.053.381-.1.574-.156,2.057-.553,3.331-.989,3.5-2.3-.228-1.9-1.414-3.9-2.463-5.67-1.125-1.9-2.1-3.535-2.036-5.048a4.311,4.311,0,0,1,1.295-2.968,2.757,2.757,0,0,0,.9-2.219,25.06,25.06,0,0,0-1.058-5.9c-.331-1.317-.744-2.956-1.2-5.005a.8.8,0,0,1,.189-.71.8.8,0,0,1,.688-.256,2,2,0,0,0,1.347-.356,1.477,1.477,0,0,0,.442-1.121c.039-.921-1.735-4.013-6.008-6.989-3.761-2.619-10.47-5.859-21.08-6.42-8.126-.43-14.49,2.477-18.909,8.641a24.964,24.964,0,0,0-3.853,20.072,74.621,74.621,0,0,0,4.784,13.552c1.163,2.661,2,4.583,2.028,5.806a9.36,9.36,0,0,1-2.678,6.31.8.8,0,0,1-1.13-.017.8.8,0,0,1,.017-1.13,7.857,7.857,0,0,0,2.193-5.129c-.019-.906-.888-2.9-1.9-5.2a75.941,75.941,0,0,1-4.879-13.839,26.562,26.562,0,0,1,4.113-21.356,22.114,22.114,0,0,1,7.649-6.793,24.012,24.012,0,0,1,12.644-2.513c10.985.581,17.977,3.967,21.908,6.7,4.444,3.095,6.764,6.621,6.692,8.368a3.019,3.019,0,0,1-1.01,2.278,3.142,3.142,0,0,1-1.486.675c.366,1.606.7,2.936.979,4.039a26.5,26.5,0,0,1,1.106,6.268,4.329,4.329,0,0,1-1.3,3.3,2.734,2.734,0,0,0-.9,1.976c-.042,1.04.86,2.56,1.813,4.168,1.147,1.935,2.448,4.128,2.687,6.4a.808.808,0,0,1,0,.159c-.245,2.579-2.708,3.241-4.686,3.773l-.037.01-.256,2.4a.8.8,0,0,1-.6.689l-3.234.832c-.115.906.293,1.339,1.617,1.787a.8.8,0,0,1,.263.15,1.879,1.879,0,0,1,.659,1.5,4.252,4.252,0,0,1-1.487,2.833,10.907,10.907,0,0,0-.387,1.4,4.246,4.246,0,0,1-4.6,3.277l-6.083-.664a3.266,3.266,0,0,0-3.454,2.247l-1.331,4.175A.8.8,0,0,1,2979.672-1017.68Zm15.37-17.21h0Z" transform="translate(-2948.455 1087.017)"/></g><g transform="translate(10.919 0.857)"><path class="e" d="M3005.323-1062.6a31.735,31.735,0,0,1-9.216.06,2.016,2.016,0,0,0-2.25,1.49c-1.7,6.356-8.218,6.071-8.471,9.127-.3,3.669-3.359,4.367-4.775,3.823-.668-5.038-1.563-5.77-4.832-5.552a4.648,4.648,0,0,0-3.858,2.9,9.382,9.382,0,0,0,1.177,7.613s-7.465,5.978-9.188,10.994l-7.066-21.525,1.307-13.945,7.844-9.914,10.786-3.486,16.45,1.743,12.638,7.517,2.288,5.012s2.665,3.342-2.833,4.14" transform="translate(-2956.843 1081.009)"/></g><g transform="translate(49.444 28.781)"><path class="e" d="M3237.985-882.29a23.685,23.685,0,0,0-2.456-.453,21.942,21.942,0,0,0-2.507-.184,21.365,21.365,0,0,0-2.522.106,16.323,16.323,0,0,0-2.447.42l-.051.014a.783.783,0,0,1-.957-.557.786.786,0,0,1,.475-.93,17.673,17.673,0,0,1,2.687-.777,23.366,23.366,0,0,1,2.727-.414,24.251,24.251,0,0,1,2.767-.1,26.314,26.314,0,0,1,2.777.205,1.36,1.36,0,0,1,1.192,1.509,1.36,1.36,0,0,1-1.509,1.193,1.255,1.255,0,0,1-.142-.024Z" transform="translate(-3227.02 885.172)"/></g><g transform="translate(52.577 33.054)"><path class="e" d="M3249.335-851.925c.576-.039,1.1-.047,1.6-.124a6.69,6.69,0,0,0,1.446-.364c.119-.044.236-.09.353-.143l.022-.009.01,0-.021.012a.488.488,0,0,0-.072.061.305.305,0,0,0-.065.1c-.014.042,0,.032,0,.009a.743.743,0,0,0-.019-.247c-.027-.142-.053-.285-.075-.428-.1-.572-.178-1.148-.227-1.731a.381.381,0,0,1,.349-.412.381.381,0,0,1,.383.231c.229.538.425,1.083.605,1.632.047.137.09.275.132.412a1.942,1.942,0,0,1,.087.608,1.2,1.2,0,0,1-.088.43.912.912,0,0,1-.183.281.784.784,0,0,1-.156.128l-.084.052c-.138.083-.281.161-.427.234a4.181,4.181,0,0,1-1.908.419,3.86,3.86,0,0,1-1.83-.485.354.354,0,0,1-.132-.483.352.352,0,0,1,.281-.177Z" transform="translate(-3248.993 855.206)"/></g><g transform="translate(55.674 43.312)"><path class="e" d="M3272.32-779.893a.474.474,0,0,1-.124-.016,2.025,2.025,0,0,1-1.385-1.306,2.027,2.027,0,0,1,.33-1.874.48.48,0,0,1,.674-.079.48.48,0,0,1,.079.674,1.072,1.072,0,0,0-.172.978,1.07,1.07,0,0,0,.722.681.48.48,0,0,1,.34.587A.48.48,0,0,1,3272.32-779.893Z" transform="translate(-3270.711 783.271)"/></g><g transform="translate(58.49 44.384)"><path class="e" d="M3292.827-775.654a.325.325,0,0,1,.075.617,3.809,3.809,0,0,1-2.13.286.387.387,0,0,1-.293-.518c.15-.587,1.5-.527,2.348-.385" transform="translate(-3290.458 775.749)"/></g><g transform="translate(0 53.505)"><path class="e" d="M2892.7-711.784l31.138,14.372.479,4.922-44.049-1.09c5.778-12.426,12.431-18.2,12.431-18.2" transform="translate(-2880.265 711.784)"/></g><g transform="translate(25.459 37.365)"><path class="e" d="M3060.1-824.578a7.164,7.164,0,0,0,2.032,2.578,2.816,2.816,0,0,0,1.307.7,1.143,1.143,0,0,0,1.068-.629l0-.011a.368.368,0,0,1,.488-.179.368.368,0,0,1,.189.462,1.948,1.948,0,0,1-1.753,1.247,2.349,2.349,0,0,1-1.077-.258,7.591,7.591,0,0,1-.84-.485,8.362,8.362,0,0,1-2.623-2.8l0,0a.68.68,0,0,1,.251-.928.679.679,0,0,1,.927.251c.01.017.019.035.028.053" transform="translate(-3058.808 824.972)"/></g><g transform="translate(27.039 29.404)"><path class="e" d="M3075.27-878a2.824,2.824,0,0,0-1.709-1.4,2.344,2.344,0,0,0-.525-.072,1.8,1.8,0,0,0-.263.01l-.129.018-.095.025a1.668,1.668,0,0,0-.8.576,2.981,2.981,0,0,0-.553,1.015,3.818,3.818,0,0,0-.211,1.2,6.6,6.6,0,0,0,.465,2.551.347.347,0,0,1-.2.447.347.347,0,0,1-.419-.145,6.348,6.348,0,0,1-.926-2.831,4.525,4.525,0,0,1,.842-3.034,2.935,2.935,0,0,1,1.425-1.054c.08-.023.165-.049.243-.066l.217-.03a3.127,3.127,0,0,1,.437-.017,2.964,2.964,0,0,1,.855.138,3.213,3.213,0,0,1,1.436.9,3.364,3.364,0,0,1,.77,1.424.464.464,0,0,1-.334.565.463.463,0,0,1-.515-.214Z" transform="translate(-3069.889 880.803)"/></g><g transform="translate(27.48 31.749)"><path class="e" d="M3073.834-864.064a3.223,3.223,0,0,0,1.174,1.356,3.061,3.061,0,0,1,.77.812,2.588,2.588,0,0,1,.377,1.057.227.227,0,0,1-.2.253.227.227,0,0,1-.248-.171v0a2.081,2.081,0,0,0-.4-.81,2.487,2.487,0,0,0-.7-.583,6.655,6.655,0,0,1-.87-.636,2.976,2.976,0,0,1-.714-.93l-.007-.015a.436.436,0,0,1,.207-.582.437.437,0,0,1,.583.207c.007.015.013.03.019.045" transform="translate(-3072.983 864.358)"/></g><g transform="translate(57.99 51.559)"><g transform="translate(1.083 2.31)"><path class="f" d="M3294.721-708.822a12.791,12.791,0,0,1,2.616,1.179,13.51,13.51,0,0,1,2.284,1.684,1.567,1.567,0,0,1,.167.22,1.168,1.168,0,0,1,.118.253,1.319,1.319,0,0,1,.062.484,1.839,1.839,0,0,1-.233.877,1.237,1.237,0,0,1-.663.564.324.324,0,0,1-.286-.024,1.1,1.1,0,0,1-.33-.413l-.009-.016a.322.322,0,0,0-.39-.156.239.239,0,0,0-.158.243,1.425,1.425,0,0,0,.3.83,1.25,1.25,0,0,0,.46.356,1.433,1.433,0,0,0,.567.126,2,2,0,0,0,1.55-.807,2.307,2.307,0,0,0,.377-.744,1.72,1.72,0,0,0,.012-.879,2.269,2.269,0,0,0-.4-.817,3.351,3.351,0,0,0-.287-.337,3.329,3.329,0,0,0-.325-.31,15.443,15.443,0,0,0-2.562-1.606,16.73,16.73,0,0,0-2.775-1.106.2.2,0,0,0-.266.133.231.231,0,0,0,.165.263Z" transform="translate(-3294.547 709.23)"/></g><g transform="translate(0 1.092)"><path class="f" d="M3287.375-716.9a2.953,2.953,0,0,1,1.368-.068,8.834,8.834,0,0,1,1.425.357,18.6,18.6,0,0,1,2.745,1.2,14.262,14.262,0,0,1,1.277.754,3.323,3.323,0,0,1,.941.949,2.641,2.641,0,0,1,.433,1.215,3.13,3.13,0,0,1-.22,1.371l0,.006a.267.267,0,0,0,.154.35.272.272,0,0,0,.3-.086,2.856,2.856,0,0,0,.659-1.685,3.031,3.031,0,0,0-.47-1.758,4.17,4.17,0,0,0-1.215-1.234,13.771,13.771,0,0,0-1.384-.787c-.468-.238-.948-.451-1.437-.646a13.63,13.63,0,0,0-1.5-.507,8.076,8.076,0,0,0-1.593-.283,3.356,3.356,0,0,0-1.708.255.341.341,0,0,0-.167.436.3.3,0,0,0,.385.168Z" transform="translate(-3286.951 717.771)"/></g><g transform="translate(0.787)"><path class="f" d="M3292.786-724.651a3.5,3.5,0,0,1,1.54-.174,8.068,8.068,0,0,1,1.6.343,24.035,24.035,0,0,1,3.137,1.292l1.571.747c.266.125.535.248.818.361a5.264,5.264,0,0,0,.931.3,2.116,2.116,0,0,0,1.129-.093,2.1,2.1,0,0,0,.858-.567,1.684,1.684,0,0,0,.432-.937,1.313,1.313,0,0,0-.319-1.023.287.287,0,0,0-.389-.035.242.242,0,0,0-.085.206l0,.031a1.018,1.018,0,0,1-.108.577,1.5,1.5,0,0,1-.353.44,1.293,1.293,0,0,1-1.033.374,4.3,4.3,0,0,1-.716-.224c-.255-.1-.516-.209-.778-.321l-1.591-.694a20.809,20.809,0,0,0-3.345-1.161,7.7,7.7,0,0,0-1.785-.22,3.579,3.579,0,0,0-1.738.4.2.2,0,0,0-.064.287.237.237,0,0,0,.277.094Z" transform="translate(-3292.47 725.43)"/></g></g></g></g></g></g></svg>