<svg xmlns="http://www.w3.org/2000/svg" width="64" height="64" viewBox="0 0 64 64"><defs><style>.a{fill:none;}.b{fill:#161615;}.c{fill:#4d4d4d;}.d{fill:#fbd100;}</style></defs><g transform="translate(-16 -3096)"><g transform="translate(16 3096)"><rect class="a" width="64" height="64"/></g><g transform="translate(18.064 3098.752)"><g transform="translate(9.339)"><path class="b" d="M489.051,436.946h0Z" transform="translate(-485.881 -418.306)"/><path class="c" d="M501.36,437.871c-1.232-.033-2.446-.222-3.582-.365-.285-.034-.561-.06-.827-.068a4.512,4.512,0,0,0-.792.042c-.276.035-.55.082-.819.142a5.14,5.14,0,0,0-.75.224l-.042.017a.471.471,0,0,1-.4-.853,5.851,5.851,0,0,1,.908-.379q.449-.147.9-.25a5.674,5.674,0,0,1,.962-.146c.323-.021.635-.022.938-.014l1.767.051c.576.01,1.142,0,1.7-.036a.818.818,0,1,1,.109,1.632c-.025,0-.049,0-.075,0Z" transform="translate(-486.363 -418.233)"/><path class="c" d="M506.916,436.237c.561.038,1.128.046,1.7.036l1.767-.052c.3-.006.615-.005.938.015a5.683,5.683,0,0,1,.962.146q.455.1.9.25a5.744,5.744,0,0,1,.908.379.47.47,0,0,1-.395.852l-.044-.017a5.146,5.146,0,0,0-.75-.224c-.268-.06-.542-.107-.819-.142a4.513,4.513,0,0,0-.792-.042c-.266.009-.542.035-.827.069-1.136.142-2.35.331-3.582.364h-.007a.818.818,0,0,1-.042-1.636.705.705,0,0,1,.076,0" transform="translate(-487.568 -418.233)"/><path class="c" d="M495.359,439.513a18,18,0,0,0,2.662.129c.442-.008.883-.042,1.32-.084a7.615,7.615,0,0,0,1.242-.218l.028-.008a.487.487,0,0,1,.313.922,5.986,5.986,0,0,1-1.465.336,9.122,9.122,0,0,1-1.445.058,8.192,8.192,0,0,1-1.433-.177,6.251,6.251,0,0,1-1.372-.457.265.265,0,0,1,.145-.5Z" transform="translate(-486.477 -418.54)"/><path class="c" d="M506.874,439.576a5.366,5.366,0,0,0-.15,1.591,3.981,3.981,0,0,0,.109.772c.063.257.145.518.23.784.171.534.342,1.094.474,1.66s.239,1.141.318,1.716v0a.616.616,0,1,1-1.22.169.55.55,0,0,1-.006-.068c-.014-.548-.052-1.092-.119-1.634s-.165-1.077-.277-1.633c-.055-.277-.112-.563-.15-.86a4.89,4.89,0,0,1-.032-.909,5.928,5.928,0,0,1,.348-1.738.25.25,0,0,1,.477.148" transform="translate(-487.568 -418.536)"/><path class="c" d="M488.788,443.274a2.121,2.121,0,0,1-.312-.013,1.709,1.709,0,0,1-1.005-.781,5.605,5.605,0,0,1-.948-3.455,2.434,2.434,0,0,1,.876-1.969,2.2,2.2,0,0,1,1.81.4.494.494,0,1,0,.634-.757,3.1,3.1,0,0,0-2.934-.5,3.3,3.3,0,0,0-1.371,2.783,6.608,6.608,0,0,0,1.125,4.065,2.543,2.543,0,0,0,1.674,1.191,2.9,2.9,0,0,0,.453.022l.728,0a2.526,2.526,0,0,0,.32-.953C489.677,443.286,488.93,443.276,488.788,443.274Z" transform="translate(-485.532 -418.212)"/><path class="c" d="M487.491,440.253a2.076,2.076,0,0,1-.316-1.011,1.337,1.337,0,0,1,.5-1.112.934.934,0,0,1,.366-.165,1.1,1.1,0,0,1,.343-.012,1.763,1.763,0,0,1,.53.156,2.788,2.788,0,0,1,.785.568,2.349,2.349,0,0,1,.311.387,1.709,1.709,0,0,1,.211.487,1.91,1.91,0,0,1-.032,1,1.951,1.951,0,0,0-.081.682c-.013.112.112.281.25.417l.046.044a.273.273,0,0,1-.279.453,1.129,1.129,0,0,1-.457-.284,1.006,1.006,0,0,1-.275-.532,2.646,2.646,0,0,1,.05-.94,1.116,1.116,0,0,0,.005-.617.916.916,0,0,0-.127-.255,1.615,1.615,0,0,0-.214-.238,1.94,1.94,0,0,0-.553-.361c-.191-.086-.375-.061-.318-.05a.467.467,0,0,0-.1.346,1.132,1.132,0,0,0,.189.525l0,0a.486.486,0,0,1-.821.52l-.006-.011" transform="translate(-485.695 -418.405)"/><path class="c" d="M520.51,440.253a2.066,2.066,0,0,0,.316-1.011,1.336,1.336,0,0,0-.5-1.112.939.939,0,0,0-.367-.165,1.1,1.1,0,0,0-.343-.012,1.761,1.761,0,0,0-.53.156,2.8,2.8,0,0,0-.785.568,2.346,2.346,0,0,0-.31.387,1.734,1.734,0,0,0-.212.487,1.907,1.907,0,0,0,.032,1,1.972,1.972,0,0,1,.082.682c.012.112-.112.281-.25.417l-.046.044a.273.273,0,0,0,.28.453,1.142,1.142,0,0,0,.457-.284,1,1,0,0,0,.274-.532,2.63,2.63,0,0,0-.049-.94,1.116,1.116,0,0,1-.006-.617.917.917,0,0,1,.127-.255,1.608,1.608,0,0,1,.214-.238,1.941,1.941,0,0,1,.553-.361c.191-.086.375-.061.318-.05a.463.463,0,0,1,.1.346,1.111,1.111,0,0,1-.189.525l0,0a.486.486,0,1,0,.821.52l.006-.011" transform="translate(-488.707 -418.405)"/><path class="c" d="M521.136,436.2a3.106,3.106,0,0,0-2.935.5.494.494,0,0,0,.634.757,2.269,2.269,0,0,1,1.81-.4,2.442,2.442,0,0,1,.876,1.97,5.614,5.614,0,0,1-.947,3.455,1.713,1.713,0,0,1-1.007.781,2.218,2.218,0,0,1-.311.013,2.179,2.179,0,0,0-.755.1.488.488,0,0,0-.229.187,1.468,1.468,0,0,1,.017.7h.965a2.824,2.824,0,0,0,.452-.022,2.542,2.542,0,0,0,1.675-1.191,6.608,6.608,0,0,0,1.125-4.065A3.3,3.3,0,0,0,521.136,436.2Z" transform="translate(-488.758 -418.212)"/><path class="c" d="M487.771,434.162c-.386-10.363,3.907-17.794,14.813-17.905,11.385-.232,15.245,7.024,14.215,18.477l-2.136.616c-.549-3.841-2.76-6.375-3.171-10.424a28.184,28.184,0,0,1-8.427,1.637,26.635,26.635,0,0,1-8.624-1.282c-1.287,5.626-2.463,5.1-3.834,9.97" transform="translate(-485.752 -416.251)"/><path class="d" d="M508.775,443.731c-1.175.044-3.989-1.521-5.158-1.5-1.308.021-4.277,1.752-5.6,1.7-3.258-.119-4.672-2.4-5.678-4.284a6.5,6.5,0,0,0-1.561-2.354,3.762,3.762,0,0,0-.736-.423s-.187,9.535,1.469,12.755a10.824,10.824,0,0,0,3.071,2.892c.25,2.785,6.986.762,10.212,3.38a14.435,14.435,0,0,0,9.64-5.058l1.6-14.062s-1.1.417-1.311,1.006C513.992,439.43,511.835,443.639,508.775,443.731Z" transform="translate(-485.979 -418.289)"/><path class="c" d="M503.321,457.207l-.18-.146a7.748,7.748,0,0,0-5.109-1.815c-1.666-.093-3.24-.182-4.348-2.856-.117-.087-.241-.177-.369-.271-1.156-.844-2.594-1.894-2.854-3.31a100.515,100.515,0,0,1-1.112-12.1l-.022-.758.7.287a4.325,4.325,0,0,1,.843.485,5.2,5.2,0,0,1,1.443,2.01c.085.171.169.341.258.508,1.01,1.89,2.332,3.915,5.262,4.023a10.281,10.281,0,0,0,2.716-.836,9.767,9.767,0,0,1,2.857-.868,8.651,8.651,0,0,1,2.72.777,9.033,9.033,0,0,0,2.428.725h0c2.828-.086,4.931-4.348,5.508-5.652.268-.732,1.369-1.185,1.587-1.268l.737-.281-1.143,12.775c-.5,5.63-6.919,7.563-11.7,8.527ZM490.37,437.581a92.546,92.546,0,0,0,1.062,11.05c.188,1.029,1.5,1.989,2.464,2.69.174.127.34.248.492.363l.109.084.05.128c.879,2.216,1.88,2.272,3.539,2.364a8.694,8.694,0,0,1,5.492,1.888c4.445-.916,10.252-2.712,10.689-7.6l.991-11.071a.8.8,0,0,0-.275.3c-.827,1.872-3.08,6.167-6.391,6.269a8.751,8.751,0,0,1-2.817-.791,9.159,9.159,0,0,0-2.35-.712,9.8,9.8,0,0,0-2.506.8,9.185,9.185,0,0,1-3.121.906c-3.742-.136-5.273-3-6.1-4.544-.094-.175-.182-.353-.271-.532A4.747,4.747,0,0,0,490.37,437.581Z" transform="translate(-485.908 -418.198)"/><path class="c" d="M513.778,439.513a18,18,0,0,1-2.662.129c-.442-.008-.883-.042-1.319-.084a7.612,7.612,0,0,1-1.242-.218l-.028-.008a.487.487,0,0,0-.312.922,5.986,5.986,0,0,0,1.465.336,9.123,9.123,0,0,0,1.445.058,8.2,8.2,0,0,0,1.433-.177,6.252,6.252,0,0,0,1.372-.457.265.265,0,0,0-.145-.5Z" transform="translate(-487.752 -418.54)"/><path class="c" d="M490.62,440.577a15.978,15.978,0,0,0,1.569,3.407,7.628,7.628,0,0,0,1.163,1.44,3.988,3.988,0,0,0,1.555.949.155.155,0,0,1,.105.193.158.158,0,0,1-.181.109,4.376,4.376,0,0,1-1.791-.885,8.179,8.179,0,0,1-1.382-1.432,16.739,16.739,0,0,1-1.955-3.415.494.494,0,0,1,.9-.407C490.608,440.548,490.616,440.564,490.62,440.577Z" transform="translate(-485.941 -418.633)"/><path class="b" d="M503.716,456.749a20.834,20.834,0,0,1-9.584-2.565.493.493,0,0,1,.448-.879c5.19,2.647,9.7,3.127,14.619,1.558a.493.493,0,0,1,.3.94A18.88,18.88,0,0,1,503.716,456.749Z" transform="translate(-486.359 -419.924)"/><path class="c" d="M510.193,447.664a.493.493,0,0,1-.09-.978,9.472,9.472,0,0,0,6.9-4.835.494.494,0,1,1,.834.528,10.479,10.479,0,0,1-7.548,5.276A.455.455,0,0,1,510.193,447.664Z" transform="translate(-487.931 -418.77)"/><path class="b" d="M513.954,451.964a.493.493,0,0,1-.123-.971,6.148,6.148,0,0,0,3.031-3.31.493.493,0,0,1,.968.187c-.232,1.2-2.174,3.669-3.751,4.078A.5.5,0,0,1,513.954,451.964Z" transform="translate(-488.304 -419.332)"/><path class="b" d="M503.011,451.657a14.2,14.2,0,0,1-6.854-1.621.493.493,0,1,1,.475-.865c4.365,2.394,9.975,1.549,13.454.1a.493.493,0,0,1,.38.91A19.951,19.951,0,0,1,503.011,451.657Z" transform="translate(-486.561 -419.513)"/></g><g transform="translate(0 26.101)"><path class="c" d="M524.889,450.843c-4.28-2.064-17.254-5.112-17.254-5.112a12.156,12.156,0,0,0-6.841-.023l-.187.057L485.9,450.484a15.342,15.342,0,0,0-9.531,20.527c1.286,3.023-.236.978,1.633,5.923h42a18.432,18.432,0,0,1,.216-2.991c.054-.333,1.319,2.991,1.319,2.991h9.477a47.934,47.934,0,0,0-4.224-12.776c-4.005-.343-4.543-3.152-4.543-3.152l-1.668,2.922-11.948-2.806a14.962,14.962,0,0,0-8.041.424c-1.021.013-3.994.893-9.755,1.338l9.685-3.107a12.49,12.49,0,0,1,7.37-.083l12.351,3.271C522.132,458.972,525.177,456.534,524.889,450.843Z" transform="translate(-475.163 -445.229)"/></g><path class="c" d="M536.731,464.79a.491.491,0,0,1-.1-.009c-.7-.138-1.583-.364-2.436-.583s-1.71-.438-2.381-.57a6.266,6.266,0,0,1-3.071-1.223,20.981,20.981,0,0,1-2.417-3.649l.846-.508a23.761,23.761,0,0,0,2.229,3.421,5.432,5.432,0,0,0,2.6.991c.7.138,1.582.364,2.436.583.643.165,1.3.334,1.879.464a3.209,3.209,0,0,0-.668-2.193.493.493,0,0,1,.477-.792,1.734,1.734,0,0,0,1.418-.239,1.942,1.942,0,0,0,.666-1.4.493.493,0,0,1,.465-.451.886.886,0,0,0,.914-.762c.13-.835-.086-1.177-.448-1.434a.493.493,0,0,1-.054-.761,1.749,1.749,0,0,0,.082-2.415.493.493,0,0,1-.089-.189c-.01-.046-.021-.107-.031-.181a1.79,1.79,0,0,0-1.007-1.5,5.249,5.249,0,0,0-1.652-.492,11.964,11.964,0,0,0-3.791-.155,5.684,5.684,0,0,0-3.241,1.52l-.7-.692a6.671,6.671,0,0,1,3.8-1.805,12.914,12.914,0,0,1,4.1.158,6.074,6.074,0,0,1,1.938.587,2.752,2.752,0,0,1,1.53,2.228l0,.024a2.7,2.7,0,0,1,.082,3.222,2.348,2.348,0,0,1,.456,2.038,1.835,1.835,0,0,1-1.425,1.537,2.756,2.756,0,0,1-1,1.71,2.408,2.408,0,0,1-1.207.47,4.152,4.152,0,0,1,.269,2.673A.494.494,0,0,1,536.731,464.79Z" transform="translate(-480.243 -419.568)"/><path class="c" d="M536.583,462.176a25.962,25.962,0,0,1-2.871-1.081h0l0,0a.485.485,0,0,1-.241-.617,5.775,5.775,0,0,0,.314-1.294,8.314,8.314,0,0,0,.066-1.392,8.971,8.971,0,0,0-.167-1.4,10.71,10.71,0,0,0-.371-1.375l0-.009a.233.233,0,0,1,.436-.165,11.19,11.19,0,0,1,.518,1.408,9.662,9.662,0,0,1,.311,1.481,9.025,9.025,0,0,1,.063,1.529,6.531,6.531,0,0,1-.245,1.57l-.246-.62h0a25.289,25.289,0,0,0,2.739,1.029l.01,0a.493.493,0,1,1-.309.937Z" transform="translate(-480.934 -420.068)"/><path class="c" d="M540.838,452.724a2.266,2.266,0,0,1-.758,1.075,3.688,3.688,0,0,1-1.067.576,4.175,4.175,0,0,1-2.359.142,1.857,1.857,0,0,1-.332-.123,1.4,1.4,0,0,1-.33-.239,1.826,1.826,0,0,1-.394-.576,2.122,2.122,0,0,1-.132-1.29,1.424,1.424,0,0,1,.325-.636,1.189,1.189,0,0,1,.614-.351,1.466,1.466,0,0,1,.654,0,1,1,0,0,1,.552.386.209.209,0,0,1-.316.271c-.21-.206-.422-.154-.7-.032a.524.524,0,0,0-.349.5c-.022.486.318,1.11.668,1.109a3.42,3.42,0,0,0,1.749-.159,1.981,1.981,0,0,0,1.239-.971l0,0a.494.494,0,0,1,.932.323Z" transform="translate(-481.145 -419.727)"/><path class="c" d="M537.642,457.295a3.623,3.623,0,0,1-.693-.061c-.218-.043-.493-.089-.757-.134-.878-.149-1.03-.18-1.172-.285a1.789,1.789,0,0,1-.541-1.928A1.76,1.76,0,0,1,536,453.538a.486.486,0,0,1,.539.441.493.493,0,0,1-.441.54.8.8,0,0,0-.667.628.912.912,0,0,0,.13.834c.152.036.52.1.8.145s.557.095.783.139a7.721,7.721,0,0,0,3.153-.447.493.493,0,1,1,.273.948A11.09,11.09,0,0,1,537.642,457.295Z" transform="translate(-481.044 -419.953)"/><path class="c" d="M539.087,460.3c-1.635,0-4.585-.713-4.951-1.191a2.508,2.508,0,0,1-.086-1.529,1.709,1.709,0,0,1,.811-1.217.493.493,0,0,1,.461.872c-.33.174-.384.925-.357,1.269a12.574,12.574,0,0,0,4.58.772.494.494,0,0,1,.237.958A3.031,3.031,0,0,1,539.087,460.3Z" transform="translate(-481.002 -420.227)"/><path class="c" d="M537.674,451.662a.868.868,0,0,1,.049.237.9.9,0,0,1-.013.231.663.663,0,0,1-.223.385.08.08,0,0,1-.122-.1l0,0a.438.438,0,0,0,.057-.3.561.561,0,0,0-.043-.141.479.479,0,0,0-.071-.117.214.214,0,1,1,.3-.31.21.21,0,0,1,.053.08Z" transform="translate(-481.327 -419.749)"/><path class="c" d="M537.611,451.545c-.012.007.043.083.089.12a.68.68,0,0,0,.189.11,1.388,1.388,0,0,0,.495.088.08.08,0,0,1,.022.158,1.614,1.614,0,0,1-.584.071,1.034,1.034,0,0,1-.318-.071.718.718,0,0,1-.317-.232.244.244,0,1,1,.424-.243Z" transform="translate(-481.318 -419.743)"/></g></g></svg>