<svg xmlns="http://www.w3.org/2000/svg" width="64" height="64" viewBox="0 0 64 64"><defs><style>.a{fill:none;}.b{fill:#fbd100;}.c{fill:#fff;}.d{fill:#4d4d4d;}</style></defs><g transform="translate(-16 -3360)"><g transform="translate(16 3360)"><rect class="a" width="64" height="64"/></g><g transform="translate(19.44 3363.441)"><path class="b" d="M632.032,552.76a24.948,24.948,0,1,1-24.949-24.948,24.949,24.949,0,0,1,24.949,24.948" transform="translate(-577.977 -524.146)"/><path class="c" d="M599.284,563.161a9.785,9.785,0,0,0,4.117,4.385,7.192,7.192,0,0,0,4.894.729,11.97,11.97,0,0,0,2.645-.846,14.415,14.415,0,0,0,4.48-2.9,8.121,8.121,0,0,0,2.032-3.568,29.894,29.894,0,0,0,.9-6.365q.2-3.175.353-6.353a1.529,1.529,0,0,0-1.917-1.648,1.77,1.77,0,0,0-1.244,1.492c-.322,1.471-.593,2.954-.911,4.425a.874.874,0,0,1-.639.712.864.864,0,0,1-.954-.482c-.05-.087-.088-.181-.132-.272q-3.418-7.176-6.837-14.35a1.445,1.445,0,0,0-1.864-.778,1.469,1.469,0,0,0-.975,1.512,2.32,2.32,0,0,0,.218.776q2.075,4.386,4.176,8.758a.82.82,0,0,1-.649,1.248.842.842,0,0,1-.793-.568q-1.236-2.611-2.482-5.216-1.357-2.846-2.714-5.692a1.583,1.583,0,0,0-1.587-.983,1.5,1.5,0,0,0-1.2,2.156q2.6,5.455,5.191,10.91a1.459,1.459,0,0,1,.164.738c-.047.422-.384.6-.779.657s-.575-.225-.774-.476a1.414,1.414,0,0,1-.134-.27l-4.53-9.51a1.3,1.3,0,0,0-1.188-.862,1.558,1.558,0,0,0-1.486.811,1.648,1.648,0,0,0,.108,1.5q2.394,5.146,4.81,10.281c.249.531.15.885-.315,1.121a.816.816,0,0,1-1.127-.463q-1.019-2.128-2.031-4.26c-.336-.705-.652-1.42-1.014-2.11a2.981,2.981,0,0,0-1.088-1.274c-.654-.386-1.953.25-1.943,1.009a3.637,3.637,0,0,0,.267,1.431c1.138,2.469,2.324,4.916,3.493,7.369,1.149,2.409,2.259,4.835,3.455,7.22" transform="translate(-577.249 -523.459)"/><path class="d" d="M613.922,548.479a4.134,4.134,0,0,1,1.237-2.589,3.087,3.087,0,0,1,3.208-.69,3.166,3.166,0,0,1,2.076,3.037c-.068,2.1-.193,4.19-.311,6.284a35.8,35.8,0,0,1-.823,6.413,10.272,10.272,0,0,1-1.807,3.955,13.605,13.605,0,0,1-4.5,3.545,15.549,15.549,0,0,1-3.357,1.361,9.448,9.448,0,0,1-5.36-.036,9.334,9.334,0,0,1-3-1.612,13.181,13.181,0,0,1-3.668-4.734c-2.111-4.362-4.183-8.743-6.255-13.123a11.235,11.235,0,0,1-.721-1.878,2.755,2.755,0,0,1,1.543-3.5c.494-.215,1.021-.349,1.53-.518-.513-1.132-1.044-2.332-.407-3.634s1.858-1.663,3.2-1.81a3.159,3.159,0,0,1,5.776-1.89,3.246,3.246,0,0,1,3.425-1.219,3.028,3.028,0,0,1,2.038,1.812q2.837,5.926,5.655,11.861l.219.46c.117-.574.215-1.031.3-1.491m-14.524,14.8a9.787,9.787,0,0,0,4.117,4.384,7.193,7.193,0,0,0,4.894.729,11.974,11.974,0,0,0,2.645-.846,14.419,14.419,0,0,0,4.48-2.9,8.122,8.122,0,0,0,2.032-3.568,29.9,29.9,0,0,0,.9-6.365q.2-3.175.353-6.353a1.529,1.529,0,0,0-1.917-1.648,1.771,1.771,0,0,0-1.244,1.492c-.322,1.472-.592,2.954-.911,4.425a.874.874,0,0,1-.639.712.864.864,0,0,1-.954-.482c-.05-.087-.088-.181-.132-.272q-3.418-7.175-6.837-14.35a1.445,1.445,0,0,0-1.864-.778,1.468,1.468,0,0,0-.975,1.512,2.323,2.323,0,0,0,.218.776q2.075,4.385,4.176,8.758a.82.82,0,0,1-.649,1.248.841.841,0,0,1-.793-.568q-1.237-2.611-2.482-5.216-1.357-2.846-2.714-5.692a1.583,1.583,0,0,0-1.587-.983,1.5,1.5,0,0,0-1.2,2.156q2.6,5.455,5.191,10.91a1.46,1.46,0,0,1,.164.738c-.047.422-.384.6-.779.657s-.575-.225-.774-.475a1.42,1.42,0,0,1-.134-.271l-4.531-9.51a1.3,1.3,0,0,0-1.188-.862,1.558,1.558,0,0,0-1.487.811,1.647,1.647,0,0,0,.108,1.5q2.394,5.145,4.81,10.281c.249.531.15.885-.315,1.121a.816.816,0,0,1-1.127-.463q-1.019-2.128-2.031-4.26c-.336-.705-.651-1.42-1.014-2.11a2.981,2.981,0,0,0-1.088-1.274c-.654-.386-1.954.25-1.943,1.009a3.636,3.636,0,0,0,.267,1.431c1.138,2.468,2.324,4.916,3.493,7.369,1.148,2.409,2.259,4.835,3.455,7.22" transform="translate(-577.363 -523.572)"/><path class="d" d="M607.164,582.2a28.9,28.9,0,1,1,28.9-28.9,28.936,28.936,0,0,1-28.9,28.9m0-50.834A21.931,21.931,0,1,0,629.1,553.3a21.955,21.955,0,0,0-21.931-21.931" transform="translate(-578.261 -524.396)"/><path class="d" d="M588.384,571.766l-4.749-5.487,36.741-36.741,4.75,5.487Z" transform="translate(-577.867 -524.019)"/></g></g></svg>