<svg xmlns="http://www.w3.org/2000/svg" width="64" height="64" viewBox="0 0 64 64"><defs><style>.a,.d,.g{fill:none;}.b{fill:#fff;}.c{fill:#4d4d4d;}.d,.g{stroke:#4d4d4d;stroke-width:1.107px;}.d{stroke-linecap:round;stroke-linejoin:round;}.e{fill:#161615;}.f{fill:#fbd100;}.g{stroke-miterlimit:10;}</style></defs><g transform="translate(-16 -3008)"><g transform="translate(16 3008)"><rect class="a" width="64" height="64"/></g><g transform="translate(19.44 3010.753)"><path class="b" d="M109.972,426.835l-4.886,10.428-3.15,1.58v4.438l1.617,2.057,2.039.082.653,5.792,22.677.649,2.443-4.111.544-2.194,3.213-1.36.234-5.542-2.621-1.213L129.4,426.359Z" transform="translate(-89.53 -418.773)"/><path class="c" d="M108.637,462.306l-11.419,3.569s-3.8.727-5.694,3.054a11.371,11.371,0,0,0-1.912,5.138c-.332,1.7-.728,3.389-1.059,5.093h57.024a65.959,65.959,0,0,0-2.3-10.791,6.669,6.669,0,0,0-.867-1.483c-1.1-1.355-2.862-1.941-4.53-2.446q-4.847-1.467-9.742-2.763" transform="translate(-88.552 -421.353)"/><path class="b" d="M111.977,457.174c-.416,1.352-1.527,4.834-1.943,6.186,10.486,7.125,19.919-.155,19.919-.155-.108-.155-1.287-5.833-1.287-5.833" transform="translate(-90.122 -421.024)"/><path class="d" d="M111.977,457.174c-.416,1.352-1.527,4.834-1.943,6.186,10.486,7.125,19.919-.155,19.919-.155-.108-.155-1.287-5.833-1.287-5.833" transform="translate(-90.122 -421.024)"/><path class="e" d="M104.58,439.085h0Z" transform="translate(-89.723 -419.703)"/><path class="c" d="M117.236,440.067c-1.282-.034-2.544-.23-3.725-.379-.3-.035-.583-.063-.859-.072a4.669,4.669,0,0,0-.824.045c-.287.036-.572.084-.851.147a5.39,5.39,0,0,0-.78.233l-.044.019a.489.489,0,0,1-.412-.886,6.082,6.082,0,0,1,.945-.395c.31-.1.623-.188.938-.26a5.983,5.983,0,0,1,1-.152c.335-.022.66-.022.975-.016l1.837.055c.6.009,1.188,0,1.771-.038a.85.85,0,0,1,.113,1.7c-.026,0-.052,0-.077,0Z" transform="translate(-90.081 -419.649)"/><path class="c" d="M122.655,438.368c.582.039,1.173.048,1.77.038l1.838-.055c.315-.007.64-.006.975.016a5.9,5.9,0,0,1,1,.152,9.666,9.666,0,0,1,.938.26,5.985,5.985,0,0,1,.945.395.489.489,0,0,1-.411.886l-.045-.019a5.562,5.562,0,0,0-.78-.233c-.279-.063-.564-.111-.852-.147a4.656,4.656,0,0,0-.823-.045c-.276.01-.565.037-.86.072a37.22,37.22,0,0,1-3.724.378h-.007a.85.85,0,1,1-.044-1.7c.026,0,.054,0,.08,0" transform="translate(-90.977 -419.649)"/><path class="c" d="M110.961,442.754a18.518,18.518,0,0,1,2.768-.133c.46.007.918.043,1.372.086a7.967,7.967,0,0,1,1.291.227l.029.008a.507.507,0,0,0,.325-.959,6.3,6.3,0,0,0-1.524-.349,9.564,9.564,0,0,0-1.5-.059,8.512,8.512,0,0,0-1.491.183,6.554,6.554,0,0,0-1.426.475.276.276,0,0,0,.15.523Z" transform="translate(-90.166 -419.884)"/><path class="c" d="M122.612,441.75a5.543,5.543,0,0,0-.155,1.654,4.1,4.1,0,0,0,.113.8c.066.267.15.539.238.817.178.555.356,1.136.493,1.725s.247,1.186.331,1.784v0a.641.641,0,1,1-1.269.176.449.449,0,0,1-.006-.07c-.016-.569-.056-1.135-.124-1.7s-.172-1.121-.288-1.7c-.057-.288-.116-.586-.157-.895a5.156,5.156,0,0,1-.033-.945,6.154,6.154,0,0,1,.361-1.807.26.26,0,0,1,.5.153" transform="translate(-90.977 -419.874)"/><path class="c" d="M104.409,445.692a2.21,2.21,0,0,1-.323-.013,1.778,1.778,0,0,1-1.047-.812,5.835,5.835,0,0,1-.985-3.592,2.534,2.534,0,0,1,.912-2.049,2.292,2.292,0,0,1,1.881.417.513.513,0,1,0,.659-.786,3.223,3.223,0,0,0-3.051-.521,3.426,3.426,0,0,0-1.426,2.894,6.865,6.865,0,0,0,1.17,4.226,2.644,2.644,0,0,0,1.742,1.238,2.922,2.922,0,0,0,.47.023l.757,0a2.608,2.608,0,0,0,.332-.991c-.168-.024-.943-.035-1.092-.037" transform="translate(-89.463 -419.633)"/><path class="c" d="M103.013,442.495a2.156,2.156,0,0,1-.329-1.052,1.391,1.391,0,0,1,.515-1.157.97.97,0,0,1,.382-.172,1.12,1.12,0,0,1,.356-.012,1.826,1.826,0,0,1,.551.162,2.9,2.9,0,0,1,.817.59,2.527,2.527,0,0,1,.323.4,1.8,1.8,0,0,1,.219.506,1.986,1.986,0,0,1-.033,1.039,2.031,2.031,0,0,0-.084.709c-.013.116.116.292.26.433l.048.046a.284.284,0,0,1-.291.471,1.178,1.178,0,0,1-.476-.295,1.048,1.048,0,0,1-.285-.553,2.74,2.74,0,0,1,.051-.978,1.157,1.157,0,0,0,.006-.642.9.9,0,0,0-.133-.264,1.638,1.638,0,0,0-.222-.247,2.025,2.025,0,0,0-.575-.375c-.2-.089-.39-.064-.331-.053a.489.489,0,0,0-.108.36,1.171,1.171,0,0,0,.2.547l0,0a.505.505,0,1,1-.854.54l-.006-.01" transform="translate(-89.585 -419.776)"/><path class="c" d="M136.453,442.495a2.146,2.146,0,0,0,.328-1.052,1.39,1.39,0,0,0-.514-1.157.976.976,0,0,0-.382-.172,1.125,1.125,0,0,0-.357-.012,1.826,1.826,0,0,0-.551.162,2.891,2.891,0,0,0-.816.59,2.477,2.477,0,0,0-.323.4,1.828,1.828,0,0,0-.22.506,1.985,1.985,0,0,0,.034,1.039,2.053,2.053,0,0,1,.084.709c.013.116-.116.292-.26.433l-.048.046a.284.284,0,0,0,.291.471,1.175,1.175,0,0,0,.475-.295,1.049,1.049,0,0,0,.286-.553,2.76,2.76,0,0,0-.052-.978,1.175,1.175,0,0,1-.006-.642.955.955,0,0,1,.133-.264,1.688,1.688,0,0,1,.222-.247,2.052,2.052,0,0,1,.575-.375c.2-.089.39-.064.331-.053a.484.484,0,0,1,.108.36,1.173,1.173,0,0,1-.2.547l0,0a.5.5,0,1,0,.853.54l.007-.01" transform="translate(-91.825 -419.776)"/><path class="c" d="M137.088,438.336a3.229,3.229,0,0,0-3.051.522.513.513,0,1,0,.659.786,2.36,2.36,0,0,1,1.881-.418,2.542,2.542,0,0,1,.912,2.049,5.842,5.842,0,0,1-.985,3.594,1.78,1.78,0,0,1-1.047.811,2.334,2.334,0,0,1-.323.013,2.264,2.264,0,0,0-.785.1.5.5,0,0,0-.238.2,1.537,1.537,0,0,1,.019.73h1a2.981,2.981,0,0,0,.471-.023,2.642,2.642,0,0,0,1.741-1.238,6.866,6.866,0,0,0,1.17-4.226,3.43,3.43,0,0,0-1.426-2.895" transform="translate(-91.862 -419.633)"/><path class="c" d="M103.288,436.8c-.4-10.775,4.062-18.5,15.4-18.617,11.837-.24,15.85,7.3,14.781,19.213l-2.222.641c-.571-3.993-2.87-6.629-3.3-10.839a29.289,29.289,0,0,1-8.761,1.7,27.7,27.7,0,0,1-8.967-1.333c-1.338,5.849-2.56,5.3-3.987,10.367" transform="translate(-89.627 -418.175)"/><path class="f" d="M125.059,446.144c-1.222.045-4.148-1.582-5.364-1.562-1.359.021-4.446,1.821-5.822,1.77-3.388-.123-4.858-2.494-5.9-4.454a6.761,6.761,0,0,0-1.622-2.446,3.975,3.975,0,0,0-.766-.441s-.195,9.914,1.528,13.264a11.263,11.263,0,0,0,3.192,3.007c.26,2.9,5.927,4.518,9.281,7.239,6.756-.78,11.36-8.985,11.36-8.985l1.662-14.621s-1.139.434-1.364,1.047c-.756,1.709-3,6.085-6.181,6.182" transform="translate(-89.796 -419.69)"/><path class="g" d="M124.915,446.047c-1.222.045-4.148-1.581-5.364-1.562-1.359.021-4.447,1.821-5.822,1.771-3.388-.123-4.858-2.494-5.9-4.454a6.765,6.765,0,0,0-1.622-2.447,3.945,3.945,0,0,0-.766-.44,102.919,102.919,0,0,0,1.148,12.5c.27,1.476,2.149,2.641,3.267,3.492,1.936,4.882,4.937,3.542,9.735,7.434,4.748-.958,11.26-5.512,11.756-11.06l1.115-12.466s-1.138.435-1.363,1.047C130.339,441.575,128.1,445.951,124.915,446.047Z" transform="translate(-89.786 -419.683)"/><path class="c" d="M115.31,442.9a.973.973,0,1,1-.972-.973.973.973,0,0,1,.972.973" transform="translate(-90.365 -419.911)"/><path class="c" d="M129.736,442.754a18.535,18.535,0,0,0-2.769-.133c-.459.007-.918.043-1.371.086a7.949,7.949,0,0,0-1.291.227l-.03.008a.507.507,0,0,1-.325-.959,6.3,6.3,0,0,1,1.525-.349,9.557,9.557,0,0,1,1.5-.059,8.5,8.5,0,0,1,1.491.183,6.545,6.545,0,0,1,1.427.475.276.276,0,0,1-.151.523Z" transform="translate(-91.115 -419.884)"/><path class="c" d="M125.74,442.9a.973.973,0,1,0,.973-.973.973.973,0,0,0-.973.973" transform="translate(-91.269 -419.911)"/><path class="c" d="M106.193,442.763a16.56,16.56,0,0,0,1.674,3.513,5.5,5.5,0,0,0,2.808,2.413l0,0a.265.265,0,0,1-.133.513,4.633,4.633,0,0,1-1.887-.962,8.6,8.6,0,0,1-1.428-1.517,17.543,17.543,0,0,1-1.991-3.582.513.513,0,1,1,.941-.412l.013.031" transform="translate(-89.768 -419.947)"/><path class="c" d="M110.186,455.614a22.648,22.648,0,0,0,7.434,2.633,18.3,18.3,0,0,0,7.888-.629.11.11,0,0,1,.136.075.112.112,0,0,1-.07.136,18.727,18.727,0,0,1-8.03,1.037,23.48,23.48,0,0,1-7.825-2.338.513.513,0,0,1,.442-.926l.024.012" transform="translate(-90.077 -420.906)"/><path class="c" d="M133.925,444.594a12.856,12.856,0,0,1-3.381,3.507,10.894,10.894,0,0,1-4.528,1.648.176.176,0,0,1-.065-.345,10.36,10.36,0,0,0,4.193-1.863,12,12,0,0,0,2.915-3.5.513.513,0,1,1,.887.515.244.244,0,0,1-.02.033" transform="translate(-91.274 -420.046)"/><path class="c" d="M133.8,450.136a4.36,4.36,0,0,1-.684,1.363,9.326,9.326,0,0,1-.9,1.088,7.823,7.823,0,0,1-1.057.934,3.844,3.844,0,0,1-1.315.655.308.308,0,0,1-.171-.591l.016,0a3.237,3.237,0,0,0,1.027-.626,6.963,6.963,0,0,0,.887-.915,8.447,8.447,0,0,0,.735-1.043,3.541,3.541,0,0,0,.451-1.057l0-.027a.514.514,0,0,1,1.013.175c0,.016-.007.031-.01.046" transform="translate(-91.541 -420.463)"/><path class="c" d="M112.075,451.867a16.86,16.86,0,0,0,7.149,1.195,26.946,26.946,0,0,0,7.137-1.314l.006,0a.315.315,0,0,1,.236.581A16.525,16.525,0,0,1,119.24,454a14.852,14.852,0,0,1-3.775-.484,11.058,11.058,0,0,1-3.441-1.553.054.054,0,0,1-.014-.074.055.055,0,0,1,.065-.019" transform="translate(-90.265 -420.627)"/></g></g></svg>