<svg xmlns="http://www.w3.org/2000/svg" width="32" height="32" viewBox="0 0 32 32"><defs><style>.a{fill:none;}.b{fill:#38485c;}</style></defs><g transform="translate(-538 -581)"><path class="a" d="M0,0H32V32H0Z" transform="translate(538 581)"/><path class="b" d="M26,10.833a2.876,2.876,0,0,0-1.444-2.488v-6.9A1.459,1.459,0,0,0,23.111,0a1.441,1.441,0,0,0-.9.317L18.371,3.388a10.956,10.956,0,0,1-6.816,2.39H2.889A2.889,2.889,0,0,0,0,8.667V13a2.889,2.889,0,0,0,2.889,2.889H4.41a10.969,10.969,0,0,0-.1,1.444,11.435,11.435,0,0,0,1.154,5.008,1.416,1.416,0,0,0,1.282.77H10.1a1.435,1.435,0,0,0,1.169-2.282,5.748,5.748,0,0,1-1.18-3.5,5.462,5.462,0,0,1,.2-1.444h1.268a10.954,10.954,0,0,1,6.815,2.39l3.838,3.071a1.444,1.444,0,0,0,2.346-1.128v-6.9A2.877,2.877,0,0,0,26,10.833Zm-4.333,6.384-1.492-1.193A13.849,13.849,0,0,0,11.556,13V8.667a13.849,13.849,0,0,0,8.619-3.023L21.667,4.45Z" transform="translate(541 585)"/></g></svg>