<svg xmlns="http://www.w3.org/2000/svg" width="64" height="64" viewBox="0 0 64 64"><defs><style>.a,.f{fill:none;}.b{fill:#fff;}.c{fill:#4d4d4d;}.d{fill:#161615;}.e{fill:#fbd100;}.f{stroke:#4d4d4d;stroke-linecap:round;stroke-linejoin:round;stroke-width:1.004px;}</style></defs><g transform="translate(-16 -3272)"><g transform="translate(16 3272)"><rect class="a" width="64" height="64"/></g><g transform="translate(19.44 3281.634)"><g transform="translate(19.915 16.137)"><path class="b" d="M110.629,548.032c3.278,0,8.89-5.4,13.793-4.592a19.4,19.4,0,0,0,8.114.054,1.291,1.291,0,0,1,1.281,1.349,5.3,5.3,0,0,1-2.176,3.748l11.013.741c1.79.246,2.778,3.209,1.285,4.269,1.808,0,3.166,1.085,3.166,2.674a2.576,2.576,0,0,1-2.793,2.768,6.649,6.649,0,0,1,.717,2.452c0,1.255-.856,2.691-4.764,2.691.844,1.532.208,3.422-1.677,3.422-.764,0-6.39.819-10.739,1.072-9.705,3.592-13.376-3.225-17.225-3.225" transform="translate(-110.079 -542.567)"/><path class="c" d="M110.586,547.421a6.791,6.791,0,0,0,2.474-.807c.827-.414,1.656-.873,2.493-1.336a24.846,24.846,0,0,1,5.371-2.413,9,9,0,0,1,3.111-.334c.6.054.987.165,1.465.234.453.071.908.124,1.365.167a20.027,20.027,0,0,0,2.75.045,15.929,15.929,0,0,0,2.669-.352h0a.981.981,0,0,1,.211-.026,2.137,2.137,0,0,1,2.024,1.507,2.081,2.081,0,0,1,.094.665,3.753,3.753,0,0,1-.051.525,5.171,5.171,0,0,1-.246.944,7,7,0,0,1-.864,1.65,4.66,4.66,0,0,1-1.448,1.4l-.352-1.615,11.015.709.057.005h.006a2.935,2.935,0,0,1,1.694.9,3.913,3.913,0,0,1,.888,1.505,3.656,3.656,0,0,1,.139,1.776,2.623,2.623,0,0,1-1.049,1.691l-.51-1.6a4.5,4.5,0,0,1,2.658.825,3.359,3.359,0,0,1,1.374,2.608,4.25,4.25,0,0,1-.191,1.414,3.3,3.3,0,0,1-.778,1.309,3.691,3.691,0,0,1-2.689,1.028l.764-1.257a7.9,7.9,0,0,1,.771,2.334,3.475,3.475,0,0,1-.1,1.434,2.9,2.9,0,0,1-.786,1.286,4.755,4.755,0,0,1-2.365,1.119,11.984,11.984,0,0,1-2.335.21l.739-1.251a3.588,3.588,0,0,1,.38,2.446,2.825,2.825,0,0,1-.583,1.216,2.66,2.66,0,0,1-1.134.782,3.236,3.236,0,0,1-.644.156l-.542.029c-.275.017-.605.049-.92.082l-1.919.2c-2.57.272-5.147.555-7.754.663l.2-.041a16.987,16.987,0,0,1-4.631.982,12.315,12.315,0,0,1-4.717-.621,19.941,19.941,0,0,1-4.168-2.114c-.647-.4-1.283-.808-1.935-1.149a4.839,4.839,0,0,0-2.01-.613h-.008a.345.345,0,0,1,.008-.69,5.549,5.549,0,0,1,2.355.594c.715.335,1.382.721,2.044,1.094a18.984,18.984,0,0,0,4.043,1.843,11.208,11.208,0,0,0,4.3.438,15.734,15.734,0,0,0,4.247-1.034.627.627,0,0,1,.172-.039l.024,0c2.544-.206,5.1-.5,7.653-.83l1.925-.243c.327-.04.638-.078,1.007-.106l.424-.028a1.581,1.581,0,0,0,.292-.081,1.029,1.029,0,0,0,.66-.83,1.946,1.946,0,0,0-.245-1.291.844.844,0,0,1,.725-1.252h.015a10.382,10.382,0,0,0,1.986-.182,3.141,3.141,0,0,0,1.529-.682,1.384,1.384,0,0,0,.371-1.267,6.328,6.328,0,0,0-.6-1.771l0-.008a.863.863,0,0,1,.387-1.158.884.884,0,0,1,.382-.092,1.728,1.728,0,0,0,1.917-1.969,1.587,1.587,0,0,0-.677-1.26,2.744,2.744,0,0,0-1.614-.471.881.881,0,0,1-.519-1.592l.009-.007a.853.853,0,0,0,.33-.573,1.916,1.916,0,0,0-.086-.907,2.157,2.157,0,0,0-.483-.82,1.15,1.15,0,0,0-.657-.366l.062.006-11.011-.773a.862.862,0,0,1-.362-1.611l.008,0a3.125,3.125,0,0,0,.877-.876,5.29,5.29,0,0,0,.662-1.237,3.509,3.509,0,0,0,.172-.637,2.5,2.5,0,0,0,.033-.289.449.449,0,0,0-.019-.142.455.455,0,0,0-.425-.326l.215-.027a17.2,17.2,0,0,1-3.007.382,21.7,21.7,0,0,1-2.976-.072c-.494-.05-.986-.111-1.477-.192-.467-.073-1.007-.2-1.361-.236a7.452,7.452,0,0,0-2.563.237,27.051,27.051,0,0,0-5.116,2.148c-.853.428-1.707.877-2.618,1.258a7.749,7.749,0,0,1-3,.754.548.548,0,0,1-.032-1.1Z" transform="translate(-110.036 -542.504)"/><path class="c" d="M145.654,555.177l-16.62-.274a.529.529,0,0,1,0-1.058l16.62-.274a.8.8,0,1,1,.026,1.607Z" transform="translate(-111.386 -543.314)"/><path class="d" d="M132.022,549.731c-.837-.091-1.707-.154-2.564-.2s-1.722-.072-2.583-.076a28.108,28.108,0,0,0-5.119.392h-.007a.405.405,0,0,1-.178-.79,29.03,29.03,0,0,1,5.26-.811q1.324-.094,2.648-.123c.887-.019,1.76-.022,2.663.005a.8.8,0,1,1-.049,1.607c-.02,0-.04,0-.059,0Z" transform="translate(-110.856 -542.914)"/><path class="c" d="M145.694,561.032l-16.107-.271a.533.533,0,0,1,0-1.065l16.107-.271a.8.8,0,1,1,.027,1.606Z" transform="translate(-111.426 -543.742)"/><path class="c" d="M143.226,566.407l-14.182-.019a.531.531,0,0,1-.019-1.061L143.2,564.8a.8.8,0,0,1,.059,1.606Z" transform="translate(-111.386 -544.135)"/></g><g transform="translate(41.95 11.766)"><path class="b" d="M142.877,538.409a3.356,3.356,0,0,0-3.12,2.123,2.456,2.456,0,0,1-2.834,2.141,2.526,2.526,0,0,0-2.235,1.41l-.038,1.705a7.949,7.949,0,0,0,.12,4.827.884.884,0,0,0,.356.525.933.933,0,0,0,.488.066,10.747,10.747,0,0,0,3.984-.691,3.651,3.651,0,0,0,2.3-3.09c0-.806-.217-2.223.982-2.3a3.357,3.357,0,1,0,0-6.714Z" transform="translate(-133.846 -537.834)"/><path class="c" d="M142.838,538.937a2.8,2.8,0,0,0-1.587.446,2.859,2.859,0,0,0-1.081,1.283l.019-.057a3.627,3.627,0,0,1-1.155,1.911,2.558,2.558,0,0,1-1.074.493,3.571,3.571,0,0,1-1.123.045l.046,0a1.959,1.959,0,0,0-1.081.311,2.145,2.145,0,0,0-.438.377,2.208,2.208,0,0,0-.32.463l.038-.167-.009,1.706a.463.463,0,0,1-.014.1l0,.017a7.355,7.355,0,0,0-.168,3.2c.044.265.109.526.18.784.041.127.077.257.123.382a2.018,2.018,0,0,0,.128.317c.041.071.055.058.029.043s.049.007.18,0l.847-.062a7.883,7.883,0,0,0,3.077-.743,3.13,3.13,0,0,0,1.671-2.121,2.238,2.238,0,0,0,.021-.318l-.014-.412a5.4,5.4,0,0,1,.034-.99,1.911,1.911,0,0,1,.6-1.2,1.653,1.653,0,0,1,.688-.357,3.612,3.612,0,0,1,.359-.054l.186-.012a2.663,2.663,0,0,0,2.177-1.385,2.7,2.7,0,0,0-.022-2.617A2.751,2.751,0,0,0,142.838,538.937Zm0-1.148a3.982,3.982,0,0,1,3.427,1.855,4.023,4.023,0,0,1-3.16,6.165l-.244.011a.2.2,0,0,1-.067.009c-.039.017-.064.017-.071.03s-.091.112-.123.317a3.97,3.97,0,0,0-.034.727l.006.449a3.689,3.689,0,0,1-.048.54,3.835,3.835,0,0,1-.9,1.868,4.905,4.905,0,0,1-1.572,1.2,9.031,9.031,0,0,1-3.6.738l-.873.026a1.515,1.515,0,0,1-.667-.1,1.156,1.156,0,0,1-.558-.562,2.894,2.894,0,0,1-.178-.487c-.047-.146-.083-.3-.122-.444a8.808,8.808,0,0,1-.166-.9,8.613,8.613,0,0,1,.289-3.615l-.019.12.067-1.7V544a.35.35,0,0,1,.036-.143,3.126,3.126,0,0,1,.463-.683,2.993,2.993,0,0,1,.613-.528,2.838,2.838,0,0,1,1.554-.455.4.4,0,0,1,.047,0,1.967,1.967,0,0,0,1.533-.378,2.663,2.663,0,0,0,.781-1.455l.011-.035.007-.021a3.892,3.892,0,0,1,3.572-2.517Z" transform="translate(-133.808 -537.789)"/></g><g transform="translate(27.751 12.615)"><path class="e" d="M119.357,544.883l3.125-3.669a6.216,6.216,0,0,1,4-1.635c4.494-.134,8.267,1.9,10.016,6.151a6.157,6.157,0,0,1-.879,6.11l-9.047,10.739c-1.722,1.886-4.593,1.968-5.578.738" transform="translate(-118.553 -538.768)"/><path class="c" d="M123.036,564.876l-.165,0a3.374,3.374,0,0,1-2.565-1.119.8.8,0,0,1,1.255-1,1.842,1.842,0,0,0,1.363.516,4,4,0,0,0,2.993-1.295l9.027-10.714a5.343,5.343,0,0,0,.751-5.286c-1.554-3.778-4.83-5.781-9.249-5.654A5.415,5.415,0,0,0,123,541.71l-3.091,3.63a.8.8,0,0,1-1.225-1.042l3.126-3.669a.735.735,0,0,1,.07-.072,7.016,7.016,0,0,1,4.521-1.844c5.056-.16,8.984,2.272,10.783,6.647a6.966,6.966,0,0,1-.988,6.909l-9.067,10.763A5.6,5.6,0,0,1,123.036,564.876Z" transform="translate(-118.49 -538.705)"/></g><path class="f" d="M128.045,542.162c2.508.684,5.863,3.218,6.538,5.473.373,1.247,0,2.128-.844,3.313" transform="translate(-91.437 -526.342)"/><g transform="translate(0 12.734)"><path class="b" d="M89.144,544.361c3.278,0,8.89-5.4,13.793-4.592a19.4,19.4,0,0,0,8.114.053,1.292,1.292,0,0,1,1.281,1.35,5.307,5.307,0,0,1-2.176,3.748l11.013.74c1.79.247,2.778,3.209,1.285,4.269,1.809,0,3.167,1.086,3.167,2.675a2.576,2.576,0,0,1-2.793,2.768,6.649,6.649,0,0,1,.717,2.452c0,1.254-.856,2.691-4.763,2.691.844,1.531.207,3.422-1.678,3.422-.764,0-6.39.818-10.739,1.071-9.705,3.592-13.376-3.225-17.225-3.225" transform="translate(-88.595 -538.895)"/><path class="c" d="M89.1,543.749a6.776,6.776,0,0,0,2.474-.807c.827-.413,1.656-.872,2.493-1.336a24.9,24.9,0,0,1,5.371-2.414,9.024,9.024,0,0,1,3.111-.334c.6.054.987.166,1.465.234.453.071.908.124,1.365.167a19.873,19.873,0,0,0,2.75.046,15.823,15.823,0,0,0,2.669-.352h0a1.105,1.105,0,0,1,.211-.026,2.137,2.137,0,0,1,2.024,1.507,2.088,2.088,0,0,1,.094.666,3.758,3.758,0,0,1-.051.525,5.129,5.129,0,0,1-.246.944,6.977,6.977,0,0,1-.864,1.65,4.664,4.664,0,0,1-1.448,1.4L110.17,544l11.015.708.057.006h.006a2.929,2.929,0,0,1,1.694.9,3.908,3.908,0,0,1,.888,1.5,3.656,3.656,0,0,1,.139,1.776,2.623,2.623,0,0,1-1.049,1.691l-.51-1.6a4.494,4.494,0,0,1,2.658.825,3.359,3.359,0,0,1,1.374,2.608,4.247,4.247,0,0,1-.191,1.413,3.308,3.308,0,0,1-.778,1.31,3.69,3.69,0,0,1-2.689,1.028l.764-1.258a7.9,7.9,0,0,1,.771,2.335,3.47,3.47,0,0,1-.1,1.433,2.9,2.9,0,0,1-.786,1.286,4.74,4.74,0,0,1-2.365,1.119,12.058,12.058,0,0,1-2.335.211l.739-1.252a3.588,3.588,0,0,1,.38,2.446,2.832,2.832,0,0,1-.583,1.217,2.64,2.64,0,0,1-1.134.781,3.18,3.18,0,0,1-.644.157l-.542.029c-.275.016-.605.048-.919.081l-1.92.206c-2.57.272-5.147.555-7.754.663l.2-.042a17,17,0,0,1-4.632.983,12.336,12.336,0,0,1-4.717-.621,19.989,19.989,0,0,1-4.168-2.115c-.647-.4-1.283-.808-1.935-1.148a4.862,4.862,0,0,0-2.01-.614h-.008a.345.345,0,0,1,.008-.69,5.555,5.555,0,0,1,2.356.593c.714.336,1.381.722,2.043,1.095a18.985,18.985,0,0,0,4.043,1.843,11.214,11.214,0,0,0,4.3.436,15.7,15.7,0,0,0,4.247-1.033.676.676,0,0,1,.172-.04h.024c2.544-.207,5.1-.5,7.653-.83l1.925-.243c.327-.039.639-.078,1.007-.107l.424-.028a1.572,1.572,0,0,0,.292-.08,1.031,1.031,0,0,0,.66-.83,1.949,1.949,0,0,0-.245-1.292.842.842,0,0,1,.329-1.146.827.827,0,0,1,.4-.106h.015a10.379,10.379,0,0,0,1.986-.183,3.151,3.151,0,0,0,1.529-.681,1.385,1.385,0,0,0,.371-1.267,6.319,6.319,0,0,0-.6-1.771l0-.008a.864.864,0,0,1,.387-1.159.883.883,0,0,1,.382-.091,1.729,1.729,0,0,0,1.917-1.97,1.59,1.59,0,0,0-.676-1.26,2.761,2.761,0,0,0-1.615-.471.881.881,0,0,1-.519-1.592l.009-.007a.851.851,0,0,0,.33-.573,1.917,1.917,0,0,0-.086-.907,2.153,2.153,0,0,0-.483-.819,1.145,1.145,0,0,0-.657-.366l.062.006-11.011-.773a.861.861,0,0,1-.361-1.61l.008,0a3.12,3.12,0,0,0,.877-.875,5.316,5.316,0,0,0,.662-1.238,3.5,3.5,0,0,0,.172-.636,2.31,2.31,0,0,0,.033-.289.423.423,0,0,0-.019-.142.455.455,0,0,0-.425-.327l.215-.027a17.19,17.19,0,0,1-3.007.382,21.541,21.541,0,0,1-2.976-.072c-.494-.049-.986-.11-1.477-.192-.467-.073-1.006-.2-1.361-.235a7.45,7.45,0,0,0-2.563.236,27.107,27.107,0,0,0-5.116,2.149c-.853.427-1.707.876-2.618,1.258a7.778,7.778,0,0,1-3,.754.549.549,0,0,1-.032-1.1Z" transform="translate(-88.552 -538.833)"/></g><path class="c" d="M124.169,551.505l-16.62-.273a.53.53,0,0,1,0-1.059l16.62-.273a.8.8,0,1,1,.026,1.606Z" transform="translate(-89.902 -526.908)"/><path class="c" d="M110.537,546.059c-.836-.09-1.707-.153-2.564-.2s-1.722-.072-2.583-.076a28.021,28.021,0,0,0-5.119.391l-.007,0a.406.406,0,0,1-.178-.791,29.031,29.031,0,0,1,5.261-.81c.882-.064,1.764-.1,2.647-.124s1.76-.022,2.664.006a.8.8,0,0,1-.05,1.608l-.059,0Z" transform="translate(-89.372 -526.509)"/><path class="c" d="M124.209,557.361,108.1,557.09a.532.532,0,0,1,0-1.064l16.107-.272a.8.8,0,0,1,.027,1.607Z" transform="translate(-89.942 -527.336)"/><path class="c" d="M121.741,562.735l-14.182-.019a.531.531,0,0,1-.019-1.062l14.172-.526a.8.8,0,1,1,.059,1.605Z" transform="translate(-89.902 -527.729)"/><path class="c" d="M121.111,534a3.259,3.259,0,0,1-6.513,0,3.331,3.331,0,0,1,3.326-3.478,3.128,3.128,0,0,1,2.377,1.1A3.49,3.49,0,0,1,121.111,534Zm-1.027,0a1.887,1.887,0,0,0-.755-1.4,2.334,2.334,0,0,0-1.4-.466A2.026,2.026,0,0,0,115.9,534a2.069,2.069,0,0,0,.507,1.514,2.11,2.11,0,0,0,3.093.062A2.2,2.2,0,0,0,120.083,534Z" transform="translate(-90.454 -525.491)"/><path class="c" d="M139.393,529.512a4.2,4.2,0,0,1-1.323,2.913,4.365,4.365,0,0,1-2.913,1.176,4.153,4.153,0,0,1-2.938-1.151,4.245,4.245,0,0,1-.151-6.027,4.337,4.337,0,0,1,3.09-1.329,4.17,4.17,0,0,1,3.079,1.339A4.359,4.359,0,0,1,139.393,529.512Zm-1.375-.13a2.756,2.756,0,0,0-.919-1.943,2.934,2.934,0,0,0-1.942-.743,2.779,2.779,0,0,0-1.933.754,2.855,2.855,0,0,0-.9,1.933,2.89,2.89,0,0,0,.753,2.077,2.956,2.956,0,0,0,2.077.923,2.785,2.785,0,0,0,2.1-.9A2.911,2.911,0,0,0,138.018,529.383Z" transform="translate(-91.644 -525.094)"/></g></g></svg>