<svg xmlns="http://www.w3.org/2000/svg" width="64" height="64" viewBox="0 0 64 64"><defs><style>.a{fill:none;}.b{fill:#3c3c3b;}.c{fill:#fff;}.d{fill:#ffd300;}</style></defs><g transform="translate(-16 -3448)"><g transform="translate(16 3448)"><rect class="a" width="64" height="64"/></g><g transform="translate(19.44 3456.258)"><g transform="translate(16.841)"><path class="b" d="M113.741,61.333a11.918,11.918,0,1,0,11.918,11.918A11.918,11.918,0,0,0,113.741,61.333Z" transform="translate(-101.823 -61.333)"/><g transform="translate(3.664 7.312)"><path class="c" d="M111.23,93.969l2.271-1.86c.993-.81,1.381-1.255,1.381-1.917a.98.98,0,0,0-1.073-1.038,1.686,1.686,0,0,0-1.3.7.8.8,0,0,1-.593.251.794.794,0,0,1-.8-.8.88.88,0,0,1,.205-.548,3.145,3.145,0,0,1,2.6-1.175,2.463,2.463,0,0,1,2.75,2.465v.023c0,1.335-.685,2-2.1,3.092l-1.3,1h2.784a.764.764,0,0,1,.764.764.755.755,0,0,1-.764.753H111.72a.843.843,0,0,1-.947-.833A1.109,1.109,0,0,1,111.23,93.969Z" transform="translate(-110.773 -87.579)"/><path class="c" d="M144.682,95.209a.867.867,0,1,1,1.734,0v.069a2.186,2.186,0,0,1,1.8-.982,1.83,1.83,0,0,1,1.723.97,2.518,2.518,0,0,1,2.008-.97c1.289,0,2.065.776,2.065,2.248v3.183a.867.867,0,1,1-1.735,0V97.114c0-.822-.365-1.243-1.015-1.243s-1.05.422-1.05,1.243v2.613a.867.867,0,1,1-1.734,0V97.114c0-.822-.365-1.243-1.015-1.243s-1.05.422-1.05,1.243v2.613a.867.867,0,1,1-1.734,0Z" transform="translate(-137.299 -92.425)"/></g></g><g transform="translate(0 20.282)"><path class="d" d="M100.336,151.265a1.917,1.917,0,0,0,.135-.248c.015-.032.035-.061.049-.093a1.955,1.955,0,0,0,.1-.323c0-.017.011-.032.014-.049a2.006,2.006,0,0,0,0-.8v0a2,2,0,0,0-.115-.371c0-.006-.007-.012-.009-.018a1.99,1.99,0,0,0-.418-.62L89.439,138.086a2,2,0,0,0-2.825,2.826l7.244,7.243H51.572l7.241-7.241a2,2,0,0,0-2.826-2.825L45.342,148.734a2.015,2.015,0,0,0-.256.311,1.985,1.985,0,0,0-.1.176c-.03.055-.064.108-.088.167a1.982,1.982,0,0,0-.07.225c-.014.05-.034.1-.044.149a1.963,1.963,0,0,0,0,.784c.009.047.028.091.04.136a1.962,1.962,0,0,0,.074.24c.016.038.039.071.057.108a1.994,1.994,0,0,0,.375.54l10.652,10.652a2,2,0,0,0,2.826-2.825l-7.247-7.247H93.857l-7.244,7.244a2,2,0,1,0,2.825,2.823l10.652-10.652c.045-.045.079-.1.119-.146A1.951,1.951,0,0,0,100.336,151.265Z" transform="translate(-43.809 -136.562)"/><path class="b" d="M54.965,161.315a2.929,2.929,0,0,1-2.078-.859L42.235,149.8a2.917,2.917,0,0,1-.555-.793,1.375,1.375,0,0,1-.079-.158,2.471,2.471,0,0,1-.106-.325l-.008-.03a1.586,1.586,0,0,1-.056-.2,2.9,2.9,0,0,1,0-1.148,1.753,1.753,0,0,1,.056-.205l.015-.052a2.42,2.42,0,0,1,.1-.294,2.025,2.025,0,0,1,.109-.217l.034-.064a2,2,0,0,1,.128-.225,2.966,2.966,0,0,1,.375-.454l10.642-10.642a2.938,2.938,0,1,1,4.155,4.155l-5.636,5.636H89.152l-5.638-5.638a2.938,2.938,0,0,1,4.155-4.156l10.652,10.653a2.912,2.912,0,0,1,.594.862l.031.068a2.969,2.969,0,0,1,.159.49l.018.085a2.925,2.925,0,0,1,0,1.16l-.028.108a2.85,2.85,0,0,1-.141.44,1.42,1.42,0,0,1-.077.154,2.662,2.662,0,0,1-.194.349,2.045,2.045,0,0,1-.156.2l-.043.052a1.822,1.822,0,0,1-.16.187L87.669,160.451a2.937,2.937,0,1,1-4.153-4.155l5.636-5.636H51.4l5.641,5.641a2.937,2.937,0,0,1-2.077,5.014ZM43.33,148.11c.015.028.028.052.04.076a1.058,1.058,0,0,0,.2.291l10.65,10.65a1.058,1.058,0,1,0,1.5-1.5l-8.852-8.852H93.692l-8.849,8.849a1.052,1.052,0,0,0,0,1.491,1.081,1.081,0,0,0,1.5,0L96.987,148.47c.021-.028.042-.055.064-.082l.075-.088c.016-.027.04-.077.062-.123.013-.026.026-.051.04-.076a1.249,1.249,0,0,0,.04-.142l.017-.066a1.063,1.063,0,0,0,0-.365l0-.023a1.047,1.047,0,0,0-.043-.151l-.029-.068a1.039,1.039,0,0,0-.213-.314L86.339,136.321a1.058,1.058,0,1,0-1.5,1.5l8.849,8.848H46.867l8.846-8.846a1.059,1.059,0,0,0,0-1.5,1.083,1.083,0,0,0-1.5,0L43.572,146.969a1.082,1.082,0,0,0-.14.168l-.105.2h0a.18.18,0,0,1-.01.048l-.014.05c-.009.033-.02.065-.03.1,0,0,0,0,0,0a1.082,1.082,0,0,0-.018.189,1.069,1.069,0,0,0,.017.184c.013.038.021.067.03.1l.01.038C43.317,148.063,43.323,148.087,43.33,148.11Zm53.8.183h0Zm-53.857-.364v0Zm54.026-.084,0,.011Zm-54.026-.331h0Z" transform="translate(-41.374 -134.132)"/></g></g></g></svg>