<svg xmlns="http://www.w3.org/2000/svg" width="32" height="32" viewBox="0 0 32 32"><defs><style>.a{fill:none;}.b{fill:#38485c;}</style></defs><path class="a" d="M0,0H32V32H0Z"/><path class="b" d="M24.333,3.667H18.76a3.984,3.984,0,0,0-7.52,0H5.667A2.675,2.675,0,0,0,3,6.333V25a2.675,2.675,0,0,0,2.667,2.667H24.333A2.675,2.675,0,0,0,27,25V6.333A2.675,2.675,0,0,0,24.333,3.667ZM15,3.667A1.333,1.333,0,1,1,13.667,5,1.337,1.337,0,0,1,15,3.667Zm1.333,18.667H9.667a1.333,1.333,0,0,1,0-2.667h6.667a1.333,1.333,0,0,1,0,2.667Zm4-5.333H9.667a1.333,1.333,0,0,1,0-2.667H20.333a1.333,1.333,0,1,1,0,2.667Zm0-5.333H9.667A1.333,1.333,0,1,1,9.667,9H20.333a1.333,1.333,0,1,1,0,2.667Z" transform="translate(1 1.333)"/></svg>