<svg xmlns="http://www.w3.org/2000/svg" xmlns:xlink="http://www.w3.org/1999/xlink" width="64" height="64" viewBox="0 0 64 64"><defs><style>.a{fill:none;}.b{fill:#f3f6f9;}.c{clip-path:url(#a);}.d{fill:#fbd100;}.e{fill:#fff;}.f{fill:#4d4d4d;}</style><clipPath id="a"><ellipse class="a" cx="32" cy="32" rx="32" ry="32"/></clipPath></defs><g transform="translate(-3892.612 1030.895)"><ellipse class="b" cx="32" cy="32" rx="32" ry="32" transform="translate(3892.612 -966.896) rotate(-90)"/><g transform="translate(3892.612 -1030.895)"><g class="c"><g transform="translate(-10.436 -8.21)"><g transform="translate(54.351 50)"><path class="d" d="M4206.4-736.215a2.5,2.5,0,0,0-1.3-1.193,5.112,5.112,0,0,0-4.1.039c-.595.9-.54,1.238.125,1.9.867,0,1.733.867,2.6.867.447.223.542-.757.688-.348a2.454,2.454,0,0,1,1.365-.189C4206.289-734.991,4206.774-735.4,4206.4-736.215Z" transform="translate(-4200.592 737.815)"/></g><g transform="translate(9.573)"><path class="e" d="M3921.867-1016.541l1.305-4.094a3.977,3.977,0,0,1,4.22-2.745s9.2,2.755,10.359-1.547a26.136,26.136,0,0,1,.462-2.642c1.008-.827,2.39-2.861,1.238-2.971-1.808-.173-3.187-1.686-2.119-3.691a2.857,2.857,0,0,1,3.355-1.274l-.274-2.778c1.9.3,3.875-.31,4.177-2.487.259-1.868-.2-2.878-1.764-4.67a6.9,6.9,0,0,0-1.367-3.22,3.166,3.166,0,0,1-.867-1.673,2.809,2.809,0,0,1-.021-.456c.1-2.606,2.193-2.317,2.154-5.129s-.94-5.011-2.229-10.854a2.262,2.262,0,0,0,2.633-2.193c.1-2.5-7.608-12.924-27.307-13.966-9.85-.521-15.727,3.923-19.225,8.8a25.668,25.668,0,0,0-3.728,21.065c2.163,8.9,6.435,15.663,6.486,18.076a8.439,8.439,0,0,1-2.388,5.609" transform="translate(-3891.288 1083.758)"/><path class="f" d="M3917.142-1020.469a.787.787,0,0,1-.238-.037.784.784,0,0,1-.509-.985l1.305-4.094a4.777,4.777,0,0,1,5.052-3.286.8.8,0,0,1,.14.028c1.6.478,6.219,1.456,8.359.264a2,2,0,0,0,1.015-1.249c.044-.2.093-.568.14-.924a7.994,7.994,0,0,1,.365-1.845.788.788,0,0,1,.22-.291,5.416,5.416,0,0,0,1.3-1.635,3.481,3.481,0,0,1-2.5-1.7,3.207,3.207,0,0,1,.126-3.093,3.393,3.393,0,0,1,3.169-1.823l-.176-1.784a.784.784,0,0,1,.242-.646.784.784,0,0,1,.659-.205,3.414,3.414,0,0,0,2.52-.428,1.97,1.97,0,0,0,.76-1.392c.215-1.548-.1-2.342-1.579-4.048a.784.784,0,0,1-.181-.383,6.128,6.128,0,0,0-1.178-2.829,3.874,3.874,0,0,1-1.061-2.1,3.614,3.614,0,0,1-.027-.584,4.226,4.226,0,0,1,1.27-2.911,2.7,2.7,0,0,0,.883-2.176,24.551,24.551,0,0,0-1.038-5.785c-.325-1.292-.729-2.9-1.173-4.91a.785.785,0,0,1,.185-.7.785.785,0,0,1,.675-.251,1.961,1.961,0,0,0,1.322-.349,1.449,1.449,0,0,0,.434-1.1c.037-.9-1.7-3.936-5.893-6.855-3.688-2.568-10.269-5.746-20.673-6.3-7.972-.423-14.212,2.43-18.547,8.477a24.868,24.868,0,0,0-3.6,20.423,75.626,75.626,0,0,0,4.518,12.55c1.14,2.609,1.964,4.495,1.989,5.694a9.179,9.179,0,0,1-2.626,6.188.784.784,0,0,1-1.108-.017.784.784,0,0,1,.017-1.109,7.7,7.7,0,0,0,2.15-5.03c-.019-.889-.871-2.84-1.859-5.1a76.984,76.984,0,0,1-4.6-12.808,26.432,26.432,0,0,1,3.853-21.707,21.683,21.683,0,0,1,7.5-6.664,23.543,23.543,0,0,1,12.4-2.465c10.774.57,17.631,3.89,21.487,6.575,4.358,3.035,6.634,6.493,6.563,8.207a2.961,2.961,0,0,1-.991,2.234,3.08,3.08,0,0,1-1.457.662c.36,1.576.688,2.88.96,3.962a25.993,25.993,0,0,1,1.085,6.146,4.244,4.244,0,0,1-1.273,3.233,2.683,2.683,0,0,0-.881,1.938,2.022,2.022,0,0,0,.016.326,2.39,2.39,0,0,0,.673,1.248,7.618,7.618,0,0,1,1.516,3.392c1.469,1.716,2.11,2.959,1.808,5.13a3.551,3.551,0,0,1-1.377,2.434,4.434,4.434,0,0,1-2.7.8l.182,1.847a.783.783,0,0,1-.288.687.783.783,0,0,1-.731.137,2.037,2.037,0,0,0-2.424.9,1.718,1.718,0,0,0-.129,1.614,2.039,2.039,0,0,0,1.63.928,1.2,1.2,0,0,1,1.089.836c.354,1.159-1.088,2.769-1.725,3.363-.075.3-.158.926-.206,1.288-.055.418-.108.814-.169,1.081,0,.01,0,.02-.007.03a3.536,3.536,0,0,1-1.771,2.226c-3.008,1.675-8.739.108-9.5-.11a3.2,3.2,0,0,0-3.323,2.21l-1.305,4.094A.785.785,0,0,1,3917.142-1020.469Z" transform="translate(-3886.563 1088.471)"/></g><g transform="translate(10.709 0.84)"><path class="f" d="M3942.076-1064.521a31.144,31.144,0,0,1-9.039.059,1.977,1.977,0,0,0-2.206,1.461c-1.669,6.233-8.06,5.954-8.308,8.951-.3,3.6-3.294,4.283-4.683,3.749-.655-4.941-1.533-5.659-4.739-5.445a4.558,4.558,0,0,0-3.784,2.848,9.2,9.2,0,0,0,1.154,7.466s-7.322,5.863-9.012,10.782l-6.929-21.111,1.282-13.676,7.693-9.723,10.578-3.419,16.133,1.71,12.395,7.372,2.244,4.915s2.614,3.277-2.778,4.06" transform="translate(-3894.53 1082.578)"/></g><g transform="translate(48.492 28.227)"><path class="f" d="M4170.257-887.686a23.208,23.208,0,0,0-2.409-.444,21.416,21.416,0,0,0-2.458-.181,20.963,20.963,0,0,0-2.474.1,15.987,15.987,0,0,0-2.4.412l-.051.013a.768.768,0,0,1-.938-.547.771.771,0,0,1,.466-.912,17.327,17.327,0,0,1,2.635-.762,22.876,22.876,0,0,1,2.674-.406,23.7,23.7,0,0,1,2.714-.1,25.7,25.7,0,0,1,2.724.2,1.334,1.334,0,0,1,1.17,1.48,1.334,1.334,0,0,1-1.48,1.17,1.258,1.258,0,0,1-.139-.024Z" transform="translate(-4159.503 890.513)"/></g><g transform="translate(50.962 33.209)"><path class="f" d="M4176.976-852.678a.385.385,0,0,0,.361-.011l.015-.007c.6-.315,1.133-.625,1.674-.861a8.625,8.625,0,0,1,1.618-.551c.069-.017,1.587-.316,1.494-.83a1.289,1.289,0,0,0-.054-.139.979.979,0,0,0-.273-.333.8.8,0,0,0-.306-.141.789.789,0,0,0-.212-.02l-.107,0q-.264.014-.532.049a5.444,5.444,0,0,0-2.109.782,5.549,5.549,0,0,0-1.641,1.545A.344.344,0,0,0,4176.976-852.678Z" transform="translate(-4176.822 855.571)"/></g><g transform="translate(56.457 42.526)"><path class="f" d="M4218.5-789.681c.38.157.082.785-.165.695-.875-.32-1.613.729-2.678-.154-.242-.2-.4-.394-.219-.736.359-.694,2.036-.229,3.061.2" transform="translate(-4215.361 790.231)"/></g><g transform="translate(60.559 44.276)"><g transform="translate(5.541)"><path class="d" d="M4287.829-771.759a11.25,11.25,0,0,1-2.029-1.5,11.866,11.866,0,0,1-1.65-1.87,1.412,1.412,0,0,1-.1-.22,1.06,1.06,0,0,1-.054-.239,1.155,1.155,0,0,1,.037-.428,1.609,1.609,0,0,1,.362-.71,1.087,1.087,0,0,1,.674-.361.285.285,0,0,1,.241.074.965.965,0,0,1,.208.416l0,.015a.284.284,0,0,0,.306.206.211.211,0,0,0,.181-.18,1.252,1.252,0,0,0-.105-.769,1.1,1.1,0,0,0-.33-.391,1.262,1.262,0,0,0-.464-.214,1.757,1.757,0,0,0-1.481.406,2.032,2.032,0,0,0-.462.569,1.511,1.511,0,0,0-.173.753,2,2,0,0,0,.192.776,2.967,2.967,0,0,0,.184.342,2.909,2.909,0,0,0,.222.327,13.6,13.6,0,0,0,1.9,1.855,14.728,14.728,0,0,0,2.18,1.465.179.179,0,0,0,.253-.065.2.2,0,0,0-.093-.257Z" transform="translate(-4282.989 777.96)"/></g><g transform="translate(3.876 0.201)"><path class="d" d="M4278.393-769.74a2.6,2.6,0,0,1-1.188-.195,7.783,7.783,0,0,1-1.158-.571,16.361,16.361,0,0,1-2.137-1.538,12.656,12.656,0,0,1-.958-.884,2.92,2.92,0,0,1-.633-.99,2.326,2.326,0,0,1-.146-1.124,2.745,2.745,0,0,1,.443-1.137l0-.005a.236.236,0,0,0-.067-.329.24.24,0,0,0-.272.019,2.513,2.513,0,0,0-.879,1.325,2.663,2.663,0,0,0,.078,1.6,3.672,3.672,0,0,0,.815,1.285,12.175,12.175,0,0,0,1.044.933c.358.292.73.564,1.115.821a11.992,11.992,0,0,0,1.2.714,7.111,7.111,0,0,0,1.316.538,2.952,2.952,0,0,0,1.515.1.3.3,0,0,0,.224-.343.267.267,0,0,0-.3-.215Z" transform="translate(-4271.313 776.547)"/></g><g transform="translate(0 3.504)"><path class="d" d="M4254.285-748.993a3.076,3.076,0,0,1-1.355-.137,7.076,7.076,0,0,1-1.313-.592,21.159,21.159,0,0,1-2.456-1.692l-1.21-.933c-.206-.157-.415-.312-.637-.462a4.651,4.651,0,0,0-.744-.43,1.86,1.86,0,0,0-.988-.129,1.848,1.848,0,0,0-.842.328,1.481,1.481,0,0,0-.546.724,1.156,1.156,0,0,0,.085.938.251.251,0,0,0,.327.1.214.214,0,0,0,.111-.161l0-.027a.9.9,0,0,1,.2-.475,1.316,1.316,0,0,1,.385-.313,1.135,1.135,0,0,1,.957-.129,3.771,3.771,0,0,1,.574.326c.2.133.4.275.609.42l1.238.891a18.337,18.337,0,0,0,2.659,1.617,6.759,6.759,0,0,0,1.493.52,3.146,3.146,0,0,0,1.567-.021.174.174,0,0,0,.108-.235.209.209,0,0,0-.221-.132Z" transform="translate(-4244.132 753.385)"/></g></g><g transform="translate(0 52.474)"><path class="f" d="M3831.618-720.465l30.539,14.095,1.4,9.8-44.13-6.037c5.667-12.186,12.192-17.853,12.192-17.853" transform="translate(-3819.426 720.465)"/></g><g transform="translate(24.968 36.645)"><path class="f" d="M3995.8-831.087a7.025,7.025,0,0,0,1.993,2.529,2.758,2.758,0,0,0,1.282.687,1.12,1.12,0,0,0,1.047-.617l0-.011a.361.361,0,0,1,.479-.176.361.361,0,0,1,.186.453,1.911,1.911,0,0,1-1.719,1.223,2.3,2.3,0,0,1-1.056-.253,7.5,7.5,0,0,1-.824-.476,8.2,8.2,0,0,1-2.573-2.745l0,0a.667.667,0,0,1,.246-.91.666.666,0,0,1,.91.246.584.584,0,0,1,.027.052" transform="translate(-3994.529 831.473)"/></g><g transform="translate(26.518 28.838)"><path class="f" d="M4010.675-883.478a2.771,2.771,0,0,0-1.676-1.371,2.3,2.3,0,0,0-.515-.071,1.767,1.767,0,0,0-.258.01l-.127.017-.093.025a1.636,1.636,0,0,0-.784.565,2.925,2.925,0,0,0-.542,1,3.744,3.744,0,0,0-.207,1.179,6.485,6.485,0,0,0,.456,2.5.34.34,0,0,1-.2.438.341.341,0,0,1-.411-.142,6.223,6.223,0,0,1-.908-2.776,4.437,4.437,0,0,1,.826-2.975,2.878,2.878,0,0,1,1.4-1.034c.079-.023.162-.048.239-.064l.214-.029a3.068,3.068,0,0,1,.427-.016,2.9,2.9,0,0,1,.839.135,3.149,3.149,0,0,1,1.408.884,3.3,3.3,0,0,1,.755,1.4.455.455,0,0,1-.328.554.455.455,0,0,1-.505-.209Z" transform="translate(-4005.398 886.229)"/></g><g transform="translate(26.951 31.138)"><path class="f" d="M4009.267-869.812a3.163,3.163,0,0,0,1.152,1.33,3,3,0,0,1,.755.8,2.528,2.528,0,0,1,.37,1.037.222.222,0,0,1-.193.248.222.222,0,0,1-.243-.168v0a2.046,2.046,0,0,0-.388-.8,2.436,2.436,0,0,0-.685-.572,6.494,6.494,0,0,1-.853-.624,2.919,2.919,0,0,1-.7-.912l-.006-.014a.428.428,0,0,1,.2-.571.429.429,0,0,1,.571.2.439.439,0,0,1,.018.044" transform="translate(-4008.433 870.1)"/></g><g transform="translate(53.801 33.829)"><ellipse class="f" cx="0.939" cy="1.615" rx="0.939" ry="1.615"/></g></g></g></g></g></svg>