<svg xmlns="http://www.w3.org/2000/svg" width="64" height="64" viewBox="0 0 64 64"><defs><style>.a{fill:none;}.b{fill:#4d4d4d;}.c{fill:#fff;}.d{fill:#fbd100;}</style></defs><g transform="translate(-16 -3184)"><g transform="translate(16 3184)"><rect class="a" width="64" height="64"/></g><g transform="translate(27.699 3186.753)"><path class="b" d="M347.524,534.008h0c.072-.628.116-1.229.216-1.82a7.9,7.9,0,0,1,1.5-3.527,6.144,6.144,0,0,1,2.573-1.9,10.051,10.051,0,0,1,3.979-.719q1.575,0,3.15,0h.377v-4.857c-.162-.007-.324-.023-.484-.023q-7.756,0-15.512,0a4.546,4.546,0,0,0-3.77,1.719c-1.277,1.593-2.575,3.168-3.839,4.771a1.921,1.921,0,0,0,.124,2.766,2.863,2.863,0,0,0,1.707.534,7.452,7.452,0,0,1,1.369.186,2.448,2.448,0,0,1,1.732,2.852.882.882,0,0,0-.884.881c0,.967,0,2.492,0,3.317a.339.339,0,0,1-.235.371,3.475,3.475,0,0,0-2.217,3.382c-.018,6.594-.017,23.923-.007,30.468a1.414,1.414,0,0,0,1.417,1.412h18.262a1.415,1.415,0,0,0,1.417-1.415c0-5.606-.018-18.875-.063-20.785,0-8.786-4.745-11.21-9.751-13.2-.2-.049-.187-.178-.186-.325,0-.792,0-2.266,0-3.211a.879.879,0,0,0-.879-.879" transform="translate(-335.188 -516.014)"/><rect class="b" width="3.408" height="4.238" transform="translate(24.947 5.484)"/><path class="b" d="M367.465,520.785a.51.51,0,1,0,.51-.51.51.51,0,0,0-.51.51" transform="translate(-337.546 -515.949)"/><path class="b" d="M367.465,520.785a.51.51,0,1,0,.51-.51A.51.51,0,0,0,367.465,520.785Z" transform="translate(-337.546 -515.949)"/><path class="b" d="M367.465,522.842a.51.51,0,1,0,.51-.511.51.51,0,0,0-.51.511" transform="translate(-337.546 -516.099)"/><path class="b" d="M367.465,522.842a.51.51,0,1,0,.51-.511A.51.51,0,0,0,367.465,522.842Z" transform="translate(-337.546 -516.099)"/><path class="b" d="M369.784,521.923a.51.51,0,1,0,.511-.51.51.51,0,0,0-.511.51" transform="translate(-337.715 -516.032)"/><path class="b" d="M369.784,521.923a.51.51,0,1,0,.511-.51A.51.51,0,0,0,369.784,521.923Z" transform="translate(-337.715 -516.032)"/><path class="b" d="M372.1,521a.51.51,0,1,0,.51-.51.51.51,0,0,0-.51.51" transform="translate(-337.884 -515.965)"/><path class="b" d="M372.1,521a.51.51,0,1,0,.51-.51A.51.51,0,0,0,372.1,521Z" transform="translate(-337.884 -515.965)"/><path class="b" d="M374.423,520.085a.51.51,0,1,0,.51-.51.51.51,0,0,0-.51.51" transform="translate(-338.054 -515.898)"/><path class="b" d="M374.423,520.085a.51.51,0,1,0,.51-.51A.51.51,0,0,0,374.423,520.085Z" transform="translate(-338.054 -515.898)"/><path class="b" d="M376.742,519.166a.51.51,0,1,0,.51-.51.51.51,0,0,0-.51.51" transform="translate(-338.223 -515.831)"/><path class="b" d="M376.742,519.166a.51.51,0,1,0,.51-.51A.51.51,0,0,0,376.742,519.166Z" transform="translate(-338.223 -515.831)"/><path class="b" d="M369.392,519.619a.51.51,0,1,0,.51-.511.51.51,0,0,0-.51.511" transform="translate(-337.686 -515.864)"/><path class="b" d="M369.392,519.619a.51.51,0,1,0,.51-.511A.51.51,0,0,0,369.392,519.619Z" transform="translate(-337.686 -515.864)"/><path class="b" d="M371.318,518.452a.51.51,0,1,0,.511-.51.51.51,0,0,0-.511.51" transform="translate(-337.827 -515.778)"/><path class="b" d="M371.318,518.452a.51.51,0,1,0,.511-.51A.51.51,0,0,0,371.318,518.452Z" transform="translate(-337.827 -515.778)"/><path class="b" d="M373.245,517.285a.51.51,0,1,0,.51-.51.511.511,0,0,0-.51.51" transform="translate(-337.968 -515.693)"/><path class="b" d="M373.245,517.285a.51.51,0,1,0,.51-.51A.511.511,0,0,0,373.245,517.285Z" transform="translate(-337.968 -515.693)"/><path class="b" d="M375.172,516.119a.51.51,0,1,0,.51-.511.51.51,0,0,0-.51.511" transform="translate(-338.109 -515.608)"/><path class="b" d="M375.172,516.119a.51.51,0,1,0,.51-.511A.51.51,0,0,0,375.172,516.119Z" transform="translate(-338.109 -515.608)"/><path class="b" d="M367.465,527.234a.51.51,0,1,1,.51.51.51.51,0,0,1-.51-.51" transform="translate(-337.546 -516.42)"/><path class="b" d="M367.465,527.234a.51.51,0,1,1,.51.51A.51.51,0,0,1,367.465,527.234Z" transform="translate(-337.546 -516.42)"/><path class="b" d="M367.465,525.177a.51.51,0,1,1,.51.51.51.51,0,0,1-.51-.51" transform="translate(-337.546 -516.27)"/><path class="b" d="M367.465,525.177a.51.51,0,1,1,.51.51A.51.51,0,0,1,367.465,525.177Z" transform="translate(-337.546 -516.27)"/><path class="b" d="M369.784,526.1a.51.51,0,1,1,.511.51.51.51,0,0,1-.511-.51" transform="translate(-337.715 -516.337)"/><path class="b" d="M369.784,526.1a.51.51,0,1,1,.511.51A.51.51,0,0,1,369.784,526.1Z" transform="translate(-337.715 -516.337)"/><path class="b" d="M370.266,523.908a.51.51,0,1,1,.51.51.509.509,0,0,1-.51-.51" transform="translate(-337.75 -516.177)"/><path class="b" d="M370.266,523.908a.51.51,0,1,1,.51.51A.509.509,0,0,1,370.266,523.908Z" transform="translate(-337.75 -516.177)"/><path class="b" d="M372.847,523.908a.51.51,0,1,1,.511.51.51.51,0,0,1-.511-.51" transform="translate(-337.939 -516.177)"/><path class="b" d="M372.847,523.908a.51.51,0,1,1,.511.51A.51.51,0,0,1,372.847,523.908Z" transform="translate(-337.939 -516.177)"/><path class="b" d="M375.429,523.908a.51.51,0,1,1,.511.51.51.51,0,0,1-.511-.51" transform="translate(-338.127 -516.177)"/><path class="b" d="M375.429,523.908a.51.51,0,1,1,.511.51A.51.51,0,0,1,375.429,523.908Z" transform="translate(-338.127 -516.177)"/><path class="b" d="M378.011,523.908a.51.51,0,1,1,.511.51.51.51,0,0,1-.511-.51" transform="translate(-338.316 -516.177)"/><path class="b" d="M378.011,523.908a.51.51,0,1,1,.511.51A.51.51,0,0,1,378.011,523.908Z" transform="translate(-338.316 -516.177)"/><path class="b" d="M372.1,527.015a.51.51,0,1,1,.51.51.51.51,0,0,1-.51-.51" transform="translate(-337.884 -516.404)"/><path class="b" d="M372.1,527.015a.51.51,0,1,1,.51.51A.51.51,0,0,1,372.1,527.015Z" transform="translate(-337.884 -516.404)"/><path class="b" d="M374.423,527.934a.51.51,0,1,1,.51.51.509.509,0,0,1-.51-.51" transform="translate(-338.054 -516.471)"/><path class="b" d="M374.423,527.934a.51.51,0,1,1,.51.51A.509.509,0,0,1,374.423,527.934Z" transform="translate(-338.054 -516.471)"/><path class="b" d="M376.742,528.853a.51.51,0,1,1,.51.51.509.509,0,0,1-.51-.51" transform="translate(-338.223 -516.538)"/><path class="b" d="M376.742,528.853a.51.51,0,1,1,.51.51A.509.509,0,0,1,376.742,528.853Z" transform="translate(-338.223 -516.538)"/><path class="b" d="M369.392,528.4a.51.51,0,1,1,.51.511.51.51,0,0,1-.51-.511" transform="translate(-337.686 -516.505)"/><path class="b" d="M369.392,528.4a.51.51,0,1,1,.51.511A.51.51,0,0,1,369.392,528.4Z" transform="translate(-337.686 -516.505)"/><path class="b" d="M371.318,529.567a.51.51,0,1,1,.511.511.51.51,0,0,1-.511-.511" transform="translate(-337.827 -516.59)"/><path class="b" d="M371.318,529.567a.51.51,0,1,1,.511.511A.51.51,0,0,1,371.318,529.567Z" transform="translate(-337.827 -516.59)"/><path class="b" d="M373.245,530.734a.51.51,0,1,1,.51.51.511.511,0,0,1-.51-.51" transform="translate(-337.968 -516.676)"/><path class="b" d="M373.245,530.734a.51.51,0,1,1,.51.51A.511.511,0,0,1,373.245,530.734Z" transform="translate(-337.968 -516.676)"/><path class="b" d="M375.172,531.9a.51.51,0,1,1,.51.511.51.51,0,0,1-.51-.511" transform="translate(-338.109 -516.761)"/><path class="b" d="M375.172,531.9a.51.51,0,1,1,.51.511A.51.51,0,0,1,375.172,531.9Z" transform="translate(-338.109 -516.761)"/><path class="c" d="M343.294,543.34h4.164a8.22,8.22,0,0,1,8.22,8.22v19.472a.971.971,0,0,1-.972.971H341.313a.972.972,0,0,1-.972-.971V546.293a2.954,2.954,0,0,1,2.953-2.953" transform="translate(-335.564 -517.634)"/><path class="d" d="M345.525,557.8a26.532,26.532,0,0,1,10.153-.53v14.76a.971.971,0,0,1-.972.971H341.313a.972.972,0,0,1-.972-.971V558.319a22.412,22.412,0,0,0,5.184-.519" transform="translate(-335.564 -518.632)"/><path class="b" d="M344.319,566.575h.833a1.177,1.177,0,0,0,1.176-1.176V530.377a1.177,1.177,0,0,0-1.176-1.176h-.833a1.176,1.176,0,0,0-1.176,1.176V565.4a1.176,1.176,0,0,0,1.176,1.176" transform="translate(-335.769 -516.601)"/></g></g></svg>