<svg xmlns="http://www.w3.org/2000/svg" width="64" height="64" viewBox="0 0 64 64"><defs><style>.a{fill:#f3f6f9;}.b{fill:#fff;}.c{fill:#4d4d4d;}.d{fill:#fbd100;}</style></defs><g transform="translate(-1080.647 1030.895)"><g transform="translate(1080.647 -1030.895)"><circle class="a" cx="32" cy="32" r="32"/></g><path class="b" d="M1086.005-1005.866c2.3,8.213,6.11,14.4,6.159,16.7a8.6,8.6,0,0,1-2.435,5.719l25.39,13.091,1.331-4.175a4.055,4.055,0,0,1,4.3-2.8l6.082.664a3.446,3.446,0,0,0,3.732-2.66,9.9,9.9,0,0,1,.5-1.7c1.027-.843,1.873-2.478.976-3.244-1.337-.452-2.446-1.1-2.119-2.868a.5.5,0,0,1,.365-.4l3.428-.882.314-2.941c2.024-.566,4.452-1,4.664-3.23-.425-4.039-4.611-8.027-4.5-10.685s2.235-2.362,2.2-5.229-.958-5.11-2.272-11.067a2.307,2.307,0,0,0,2.685-2.237,1.8,1.8,0,0,0-.045-.442,31.858,31.858,0,0,0-19.512-6.638A32.011,32.011,0,0,0,1086.005-1005.866Z" transform="translate(-4.594 -0.001)"/><g transform="translate(1095.043 -1010.116)"><g transform="translate(23.986 0)"><path class="c" d="M1360.784-882.29a23.7,23.7,0,0,0-2.456-.453,21.934,21.934,0,0,0-2.506-.184,21.365,21.365,0,0,0-2.522.106,16.312,16.312,0,0,0-2.447.42l-.052.014a.783.783,0,0,1-.956-.557.786.786,0,0,1,.475-.93,17.675,17.675,0,0,1,2.687-.777,23.356,23.356,0,0,1,2.726-.414,24.249,24.249,0,0,1,2.767-.1,26.316,26.316,0,0,1,2.777.205,1.36,1.36,0,0,1,1.193,1.509,1.36,1.36,0,0,1-1.509,1.193,1.239,1.239,0,0,1-.142-.024Z" transform="translate(-1349.818 885.172)"/></g><g transform="translate(27.119 4.273)"><path class="c" d="M1372.133-851.925c.576-.039,1.1-.047,1.6-.124a6.7,6.7,0,0,0,1.446-.364c.119-.044.236-.09.353-.143l.022-.009.01,0-.021.012a.476.476,0,0,0-.072.061.3.3,0,0,0-.065.1c-.014.042,0,.032,0,.009a.756.756,0,0,0-.018-.247c-.028-.142-.053-.285-.076-.428-.1-.572-.178-1.148-.227-1.731a.382.382,0,0,1,.349-.412.382.382,0,0,1,.383.231c.229.538.424,1.083.6,1.632.047.137.09.275.132.412a1.939,1.939,0,0,1,.087.608,1.2,1.2,0,0,1-.088.43.909.909,0,0,1-.183.281.776.776,0,0,1-.156.128l-.084.052q-.207.124-.427.234a4.179,4.179,0,0,1-1.908.419,3.858,3.858,0,0,1-1.83-.485.354.354,0,0,1-.132-.483.352.352,0,0,1,.281-.177Z" transform="translate(-1371.791 855.206)"/></g><g transform="translate(30.216 14.53)"><path class="c" d="M1395.117-779.893a.483.483,0,0,1-.124-.016,2.026,2.026,0,0,1-1.385-1.306,2.028,2.028,0,0,1,.33-1.874.48.48,0,0,1,.674-.079.479.479,0,0,1,.079.674,1.072,1.072,0,0,0-.172.978,1.07,1.07,0,0,0,.722.681.48.48,0,0,1,.34.587A.48.48,0,0,1,1395.117-779.893Z" transform="translate(-1393.509 783.271)"/></g><g transform="translate(33.031 15.603)"><path class="c" d="M1415.625-775.654a.326.326,0,0,1,.075.617,3.81,3.81,0,0,1-2.13.286.387.387,0,0,1-.293-.518c.151-.587,1.5-.527,2.348-.385" transform="translate(-1413.256 775.749)"/></g><g transform="translate(0 8.584)"><path class="c" d="M1182.9-824.578a7.165,7.165,0,0,0,2.032,2.578,2.814,2.814,0,0,0,1.307.7,1.143,1.143,0,0,0,1.068-.629l0-.011a.368.368,0,0,1,.488-.179.369.369,0,0,1,.19.462,1.949,1.949,0,0,1-1.753,1.247,2.347,2.347,0,0,1-1.077-.258,7.61,7.61,0,0,1-.84-.485,8.355,8.355,0,0,1-2.623-2.8l0,0a.68.68,0,0,1,.251-.928.679.679,0,0,1,.927.251c.01.017.02.035.028.053" transform="translate(-1181.605 824.972)"/></g><g transform="translate(1.58 0.623)"><path class="c" d="M1198.068-878a2.826,2.826,0,0,0-1.71-1.4,2.344,2.344,0,0,0-.525-.072,1.82,1.82,0,0,0-.263.01l-.13.018-.095.025a1.667,1.667,0,0,0-.8.576,2.982,2.982,0,0,0-.553,1.015,3.811,3.811,0,0,0-.211,1.2,6.607,6.607,0,0,0,.465,2.551.347.347,0,0,1-.2.447.347.347,0,0,1-.419-.145,6.344,6.344,0,0,1-.926-2.831,4.527,4.527,0,0,1,.842-3.034,2.936,2.936,0,0,1,1.425-1.054c.08-.023.165-.049.243-.066l.218-.03a3.12,3.12,0,0,1,.436-.017,2.963,2.963,0,0,1,.855.138,3.216,3.216,0,0,1,1.436.9,3.366,3.366,0,0,1,.77,1.424.464.464,0,0,1-.334.565.464.464,0,0,1-.515-.214Z" transform="translate(-1192.687 880.803)"/></g><g transform="translate(2.021 2.968)"><path class="c" d="M1196.632-864.064a3.224,3.224,0,0,0,1.174,1.356,3.059,3.059,0,0,1,.77.812,2.6,2.6,0,0,1,.377,1.057.227.227,0,0,1-.2.253.226.226,0,0,1-.248-.171v0a2.081,2.081,0,0,0-.4-.81,2.484,2.484,0,0,0-.7-.583,6.67,6.67,0,0,1-.87-.636,2.974,2.974,0,0,1-.714-.93l-.007-.015a.436.436,0,0,1,.207-.582.437.437,0,0,1,.583.207.481.481,0,0,1,.018.045" transform="translate(-1195.782 864.358)"/></g><g transform="translate(31.455 17.276)"><path class="d" d="M1407.752-759.265c.073-1.084-.513-1.783.354-2.813.977-1.159,2.188-.727,2.937.439.315-1.1,1.561-2.739,2.842-2.309a2.793,2.793,0,0,1,1.391,2.783c2.486-.086,3.2,4.127.281,3.924.565,2.316-1.384,4.547-3.018,2.252-.107,1.292.045,2.629-1.566,2.781-.928.087-2.386-.774-2.2-1.9a1.4,1.4,0,0,1-2.114-.5c-.151-.245-.08-1-.108-1.033-.348-.43-.895-.295-1.448-.458-.843-.249-2.588-.9-2.9-1.857,0,0,5.389,1.277,5.55-1.3" transform="translate(-1402.202 764.018)"/></g></g><path class="c" d="M1088.022-1007.054l5.871,17.885c1.723-5.016,9.188-10.994,9.188-10.994a9.381,9.381,0,0,1-1.177-7.613,4.648,4.648,0,0,1,3.858-2.9c3.268-.218,4.164.514,4.832,5.552,1.416.544,4.472-.154,4.775-3.823.252-3.056,6.769-2.771,8.471-9.127a2.016,2.016,0,0,1,2.249-1.489,31.745,31.745,0,0,0,9.217-.06c5.5-.8,2.833-4.14,2.833-4.14l-.515-1.127a31.855,31.855,0,0,0-18.655-6A32.012,32.012,0,0,0,1088.022-1007.054Z" transform="translate(-6.323 -0.001)"/><path class="c" d="M1133.889-691.64l-29.058-13.412a32,32,0,0,0,28.552,17.538c.31,0,.619-.006.927-.014Z" transform="translate(-20.735 -279.38)"/><g transform="translate(1081.081 -1025.13)"><path class="c" d="M1307.838-988.934q-.977-.806-2.02-1.533a2.924,2.924,0,0,1,.435,1.282,1.476,1.476,0,0,1-.442,1.121,2,2,0,0,1-1.347.356.8.8,0,0,0-.688.256.8.8,0,0,0-.189.71c.452,2.049.865,3.688,1.2,5.006a25.055,25.055,0,0,1,1.058,5.9,2.757,2.757,0,0,1-.9,2.219,4.31,4.31,0,0,0-1.295,2.967c-.061,1.513.911,3.151,2.036,5.048,1.049,1.768,2.235,3.769,2.463,5.669-.17,1.315-1.444,1.751-3.5,2.3-.194.052-.386.1-.574.156a.8.8,0,0,0-.579.685l-.255,2.389-2.89.744a1.306,1.306,0,0,0-.953,1.03c-.465,2.518,1.485,3.362,2.451,3.7a.417.417,0,0,1,.033.187,2.82,2.82,0,0,1-1.062,1.75.8.8,0,0,0-.225.3,10.589,10.589,0,0,0-.547,1.845,2.648,2.648,0,0,1-2.866,2.044l-6.082-.664a4.869,4.869,0,0,0-5.151,3.351l-1.331,4.175a.8.8,0,0,0,.519,1,.8.8,0,0,0,.243.038.8.8,0,0,0,.761-.557l1.331-4.175a3.265,3.265,0,0,1,3.454-2.247l6.082.664a4.246,4.246,0,0,0,4.6-3.277,10.969,10.969,0,0,1,.387-1.4,4.253,4.253,0,0,0,1.487-2.833,1.881,1.881,0,0,0-.659-1.5.8.8,0,0,0-.263-.149c-1.324-.448-1.732-.881-1.617-1.787l3.234-.832a.8.8,0,0,0,.6-.689l.256-2.4.037-.01c1.979-.532,4.441-1.194,4.686-3.772a.817.817,0,0,0,0-.159c-.239-2.273-1.54-4.466-2.687-6.4-.954-1.609-1.855-3.128-1.813-4.168a2.733,2.733,0,0,1,.9-1.976,4.328,4.328,0,0,0,1.3-3.3,26.5,26.5,0,0,0-1.106-6.267c-.277-1.1-.612-2.433-.978-4.039a3.141,3.141,0,0,0,1.486-.675A2.966,2.966,0,0,0,1307.838-988.934Z" transform="translate(-1255.928 990.467)"/><path class="c" d="M1087.483-853.522c1.007,2.3,1.876,4.293,1.895,5.2a7.854,7.854,0,0,1-2.193,5.129.8.8,0,0,0-.156.218q.312.582.647,1.149a.794.794,0,0,0,.621-.22,9.358,9.358,0,0,0,2.678-6.31c-.026-1.223-.866-3.145-2.028-5.806a78.085,78.085,0,0,1-4.529-12.482,31.807,31.807,0,0,0-.731,3.315A91.577,91.577,0,0,0,1087.483-853.522Z" transform="translate(-1083.688 884.3)"/></g></g></svg>