<svg xmlns="http://www.w3.org/2000/svg" width="32" height="32" viewBox="0 0 32 32"><defs><style>.a{fill:none;}.b{fill:#38485c;}</style></defs><g transform="translate(-627 -582)"><path class="a" d="M0,0H32V32H0Z" transform="translate(627 582)"/><path class="b" d="M11.375,13a6.5,6.5,0,1,0-6.5-6.5A6.5,6.5,0,0,0,11.375,13ZM5.281,21.531A1.219,1.219,0,1,0,6.5,20.313,1.216,1.216,0,0,0,5.281,21.531ZM16.25,14.655v2.488a4.069,4.069,0,0,1,3.25,3.981v2.118a.815.815,0,0,1-.655.8l-1.635.325a.4.4,0,0,1-.477-.32l-.157-.8a.4.4,0,0,1,.32-.477l.98-.2V21.125a2.438,2.438,0,1,0-4.875.1v1.356l.98.2a.412.412,0,0,1,.32.477l-.157.8a.412.412,0,0,1-.477.32l-1.584-.213a.811.811,0,0,1-.7-.807V21.125a4.073,4.073,0,0,1,3.25-3.981v-2.3c-.112.036-.223.056-.335.1a8.785,8.785,0,0,1-5.83,0,5.612,5.612,0,0,0-1.148-.264v4.144a2.844,2.844,0,1,1-1.625,0V14.742A6.807,6.807,0,0,0,0,21.45v2.275A2.278,2.278,0,0,0,2.275,26h18.2a2.278,2.278,0,0,0,2.275-2.275V21.45a6.815,6.815,0,0,0-6.5-6.795Z" transform="translate(631.625 585)"/></g></svg>