<svg xmlns="http://www.w3.org/2000/svg" width="1067pt" height="1067pt" version="1.1" viewBox="0 0 1067 1067"><g id="#ffffffff"><path fill="#fff" d="M 269.00 0.00 L 722.65 0.00 C 754.71 1.22 786.88 -0.21 818.92 2.06 C 839.92 4.54 860.75 9.00 880.70 16.08 C 914.70 28.10 946.31 46.79 973.32 70.67 C 984.89 81.46 995.84 92.93 1005.89 105.15 C 1032.17 138.46 1050.94 177.77 1059.76 219.30 C 1062.94 233.52 1064.10 248.06 1065.83 262.50 C 1066.73 280.84 1065.90 299.23 1067.00 317.57 L 1067.00 749.34 C 1065.48 770.88 1067.60 792.62 1064.68 814.07 C 1061.17 853.48 1049.22 892.17 1029.47 926.48 C 994.14 988.36 934.21 1035.85 865.57 1055.27 C 844.62 1061.47 822.84 1064.05 801.15 1065.99 C 785.60 1066.61 770.01 1066.02 754.46 1067.00 L 316.25 1067.00 C 293.88 1065.50 271.30 1067.68 249.06 1064.28 C 191.27 1059.02 135.78 1034.02 92.76 995.22 C 48.48 955.67 17.12 901.63 5.88 843.25 C 4.17 833.86 2.26 824.47 1.74 814.93 C 0.07 786.27 1.08 757.53 0.00 728.86 L 0.00 338.78 C 1.10 311.52 0.05 284.21 1.25 256.94 C 4.44 215.50 16.89 174.76 37.75 138.79 C 49.70 118.17 64.11 98.86 81.35 82.35 C 112.31 50.27 151.71 26.59 194.23 13.36 C 218.46 5.65 243.77 2.25 269.00 0.00 M 285.30 91.49 C 271.56 91.85 257.73 91.57 244.09 93.50 C 233.61 95.74 223.19 98.41 213.14 102.17 C 184.69 112.58 158.86 130.07 138.63 152.62 C 113.24 180.69 96.78 216.67 92.12 254.23 C 91.17 265.47 91.60 276.76 91.19 288.02 C 90.81 398.66 91.08 509.32 91.00 619.97 C 91.08 672.04 90.78 724.11 91.29 776.17 C 91.67 791.47 91.27 806.86 93.30 822.07 C 95.66 834.10 98.88 846.01 103.34 857.44 C 115.85 889.89 137.74 918.62 165.60 939.40 C 192.63 959.74 225.30 972.56 258.99 975.74 C 277.32 976.29 295.65 976.21 313.99 976.19 C 330.34 976.60 346.71 976.31 363.06 976.40 C 401.05 976.40 439.04 976.40 477.03 976.40 C 537.35 976.55 597.66 976.07 657.99 976.20 C 709.00 976.33 759.99 975.87 811.00 975.99 C 839.00 971.86 866.53 962.73 890.43 947.37 C 921.08 927.63 946.09 898.95 960.70 865.49 C 968.51 847.90 973.27 829.08 975.99 810.07 C 976.01 670.71 975.99 531.35 976.00 391.99 C 975.97 350.32 976.17 308.65 975.61 267.00 C 975.46 259.17 975.44 251.27 973.70 243.60 C 967.84 213.36 954.89 184.42 935.45 160.46 C 910.66 129.30 875.48 106.73 836.98 96.73 C 824.38 93.39 811.42 91.28 798.36 91.50 C 725.57 90.67 652.76 91.11 579.95 91.00 C 481.73 91.10 383.51 90.69 285.30 91.49 Z" opacity="1"/><path fill="#fff" d="M 818.53 178.85 C 832.43 176.69 847.04 179.46 859.17 186.61 C 874.50 195.40 885.56 211.49 887.77 229.08 C 889.63 243.23 887.59 258.41 879.51 270.45 C 871.56 282.21 859.97 291.82 846.32 296.13 C 832.36 300.71 816.78 299.48 803.42 293.52 C 785.98 285.61 772.53 269.05 769.02 250.15 C 767.43 239.27 767.50 227.79 771.51 217.42 C 778.85 197.42 797.48 182.13 818.53 178.85 Z" opacity="1"/><path fill="#fff" d="M 526.13 269.31 C 588.70 267.00 651.47 288.60 700.08 327.91 C 713.70 339.51 726.38 352.22 738.14 365.70 C 776.40 412.01 798.58 471.76 798.20 531.96 C 799.00 568.56 791.08 605.13 776.81 638.76 C 752.17 696.62 705.63 744.59 649.19 772.08 C 618.31 787.03 584.48 795.82 550.25 797.94 C 528.73 798.60 506.98 798.34 485.79 794.12 C 447.30 787.00 410.43 771.27 378.76 748.24 C 364.61 738.30 352.22 726.13 340.23 713.72 C 313.02 685.62 293.30 650.64 281.34 613.50 C 269.86 577.32 266.43 538.65 271.14 501.01 C 276.32 459.60 291.44 419.47 314.99 385.02 C 339.93 348.23 374.33 317.93 413.97 297.83 C 448.68 280.39 487.23 270.13 526.13 269.31 M 512.49 349.83 C 484.69 353.20 457.80 363.10 434.18 378.09 C 404.29 396.92 380.38 424.79 365.71 456.89 C 356.93 475.44 351.26 495.51 349.65 515.99 C 347.86 539.19 349.25 562.87 355.97 585.25 C 366.13 619.11 385.77 650.20 412.49 673.42 C 441.51 698.73 478.66 714.46 516.96 718.10 C 539.78 719.59 563.03 718.14 585.06 711.67 C 620.85 701.29 653.15 679.62 676.80 650.87 C 698.77 624.47 712.79 591.72 717.33 557.72 C 719.92 532.46 718.65 506.56 711.52 482.09 C 700.70 445.44 678.40 412.17 648.28 388.59 C 617.57 364.48 579.15 349.78 539.99 348.99 C 530.82 348.66 521.59 348.47 512.49 349.83 Z" opacity="1"/></g></svg>