<?xml version="1.0" encoding="UTF-8" ?>
<!DOCTYPE svg PUBLIC "-//W3C//DTD SVG 1.1//EN" "http://www.w3.org/Graphics/SVG/1.1/DTD/svg11.dtd">
<svg width="66pt" height="66pt" viewBox="0 0 66 66" version="1.1" xmlns="http://www.w3.org/2000/svg">
<g id="#ffffffff">
<path fill="#ffffff" opacity="1.00" d=" M 4.27 1.12 C 5.76 0.42 7.46 0.79 9.03 0.90 C 23.64 2.72 37.55 9.75 47.67 20.45 C 57.64 30.82 64.06 44.65 65.27 59.01 C 66.03 63.96 59.52 67.46 55.71 64.36 C 52.84 62.49 53.33 58.73 52.66 55.80 C 49.03 34.28 30.69 16.28 9.08 13.12 C 6.69 12.67 3.81 12.90 2.12 10.79 C -0.78 7.99 0.41 2.40 4.27 1.12 Z" />
<path fill="#ffffff" opacity="1.00" d=" M 2.67 25.71 C 5.04 23.63 8.38 24.61 11.11 25.25 C 26.75 29.12 39.55 43.01 41.52 59.08 C 42.34 63.83 36.17 67.32 32.36 64.56 C 30.39 63.44 29.68 61.20 29.31 59.10 C 27.10 48.45 18.44 39.45 7.85 36.92 C 5.95 36.38 3.74 36.28 2.32 34.73 C -0.26 32.36 -0.03 27.89 2.67 25.71 Z" />
<path fill="#ffffff" opacity="1.00" d=" M 6.43 47.63 C 12.89 44.78 20.60 51.31 18.77 58.14 C 17.79 64.65 9.15 67.75 4.12 63.62 C -1.54 59.67 -0.19 49.76 6.43 47.63 Z" />
</g>
</svg>
