<svg xmlns="http://www.w3.org/2000/svg" width="640" height="640" version="1.1" viewBox="0 0 480 480"><g id="#ffffffff"><path fill="#fff" d="M 289.15 54.99 C 306.60 46.24 326.68 43.58 345.96 46.00 C 367.98 48.99 388.81 59.79 404.02 75.98 C 426.12 72.01 447.28 63.53 466.67 52.30 C 459.64 74.84 443.82 94.07 423.94 106.59 C 442.40 104.46 460.40 99.35 477.56 92.32 L 477.40 91.35 C 478.05 91.41 479.35 91.53 480.00 91.59 L 480.00 92.68 C 479.08 93.17 478.29 93.82 477.63 94.61 C 464.77 112.85 448.91 129.04 430.72 142.00 C 430.31 148.35 431.83 154.67 430.90 161.01 C 430.52 186.14 426.08 211.11 418.94 235.18 C 404.68 282.26 378.74 326.02 343.11 360.07 C 308.93 393.25 265.45 416.62 219.05 427.27 C 197.12 432.41 174.58 435.01 152.06 434.78 C 104.41 435.38 56.82 422.83 15.21 399.71 C 10.85 397.12 6.27 394.84 2.23 391.73 C 1.68 391.69 0.56 391.61 0.00 391.57 L 0.00 390.38 C 2.68 390.77 5.33 391.40 8.05 391.43 C 23.40 392.17 38.88 392.11 54.08 389.65 C 87.32 384.47 119.19 370.72 145.65 349.93 C 121.44 349.49 97.54 339.74 80.01 323.02 C 68.09 311.68 58.63 297.37 54.05 281.50 C 68.51 284.44 83.69 283.79 97.91 279.90 C 74.81 274.98 53.52 261.73 39.33 242.80 C 26.21 225.58 18.88 203.88 19.43 182.19 C 33.02 189.51 48.33 194.20 63.82 194.31 C 48.21 184.00 35.81 168.99 28.31 151.88 C 15.87 123.70 17.83 89.79 33.31 63.18 C 36.87 66.79 39.83 70.94 43.42 74.53 C 92.31 128.79 163.33 162.82 236.40 165.70 C 232.44 149.01 233.09 131.28 238.07 114.87 C 245.81 88.97 264.84 66.78 289.15 54.99 Z" opacity="1"/></g></svg>