<svg xmlns="http://www.w3.org/2000/svg" width="790pt" height="980pt" version="1.1" viewBox="0 0 790 980"><g id="#ffffffff"><path fill="#fff" d="M 116.31 0.00 L 153.31 0.00 C 159.48 2.24 166.23 0.49 172.64 1.26 C 181.43 34.62 190.70 67.86 199.81 101.13 C 203.24 112.93 206.34 124.84 210.60 136.38 C 211.10 137.37 211.53 138.79 212.81 139.02 C 219.23 119.65 223.53 99.65 229.07 80.02 C 235.28 55.07 241.97 30.26 248.47 5.40 C 249.03 1.95 252.94 1.34 255.54 0.00 L 302.32 0.00 C 304.12 0.68 306.01 1.01 307.90 1.34 C 305.62 9.70 302.81 17.89 300.05 26.10 C 296.90 37.59 292.70 48.75 289.06 60.10 C 285.59 72.60 281.01 84.75 277.06 97.10 C 272.27 114.22 265.60 130.75 260.81 147.87 C 255.69 163.72 249.93 179.37 245.33 195.37 C 244.21 198.88 242.91 202.33 241.78 205.84 C 240.33 210.08 241.03 214.62 240.92 219.00 C 240.86 263.28 241.03 307.56 240.83 351.83 C 221.61 351.98 202.37 351.94 183.15 351.85 C 183.06 309.24 183.14 266.62 183.12 224.00 C 183.00 219.62 183.71 215.07 182.23 210.84 C 176.45 193.88 170.90 176.85 165.17 159.87 C 156.45 130.74 145.70 102.24 136.97 73.11 C 132.62 60.12 128.24 47.13 123.96 34.12 C 121.53 24.87 118.03 15.94 115.23 6.80 C 114.79 5.07 114.13 3.31 114.28 1.50 C 114.79 1.12 115.80 0.37 116.31 0.00 Z" opacity="1"/><path fill="#fff" d="M 374.42 86.45 C 381.56 85.70 388.82 86.48 396.01 86.10 C 405.57 87.12 415.27 88.24 424.32 91.74 C 430.48 94.73 436.69 97.69 442.16 101.85 C 453.18 111.48 461.67 124.72 463.56 139.41 C 464.39 143.97 463.17 148.74 464.76 153.21 C 465.32 163.77 463.94 174.55 465.97 184.99 C 465.71 208.31 465.83 231.63 465.92 254.95 C 464.31 260.83 465.16 266.98 464.84 273.01 C 464.47 278.69 465.74 284.52 464.02 290.06 C 463.58 294.40 464.36 298.83 463.06 303.08 C 462.73 312.37 457.87 320.56 453.40 328.41 C 449.88 332.52 447.07 337.37 442.56 340.54 C 439.80 342.42 437.53 344.95 434.58 346.57 C 431.35 348.39 427.94 349.87 424.68 351.63 C 419.49 354.31 413.57 354.69 407.94 355.84 C 397.29 355.91 386.64 356.14 375.99 355.87 C 368.09 356.22 360.18 354.22 353.04 350.90 C 345.73 346.45 338.16 342.06 332.25 335.75 C 327.27 329.88 323.23 323.30 319.37 316.65 C 317.49 313.32 314.52 310.13 315.01 306.02 C 315.36 302.94 313.88 300.07 313.98 297.02 C 314.46 267.68 313.94 238.32 314.01 208.98 C 312.03 200.14 313.49 190.99 312.98 182.00 C 312.47 178.24 314.30 174.74 314.04 171.01 C 314.10 163.08 314.09 155.13 314.24 147.22 C 315.77 142.93 314.45 138.26 316.03 133.98 C 317.51 127.75 320.38 122.01 323.43 116.42 C 325.46 112.59 329.10 110.01 331.27 106.27 C 338.77 99.75 347.17 94.01 356.62 90.67 C 359.39 89.82 362.13 88.89 364.85 87.90 C 367.90 86.64 371.30 87.50 374.42 86.45 M 387.38 130.30 C 382.95 130.80 378.75 132.54 375.18 135.17 C 371.26 138.30 369.76 143.33 368.94 148.07 C 368.58 150.90 369.31 153.80 368.59 156.59 C 367.43 160.62 368.01 164.87 367.84 169.00 C 367.86 206.34 367.77 243.67 367.88 281.00 C 367.62 284.07 369.16 286.93 368.90 289.99 C 368.54 295.50 369.75 301.39 373.17 305.83 C 377.17 309.82 382.79 311.69 388.19 312.89 C 394.45 312.82 400.31 309.99 405.21 306.22 C 409.56 300.94 410.50 293.63 410.09 287.01 C 409.64 283.59 411.32 280.40 411.07 277.00 C 411.24 238.33 411.21 199.67 411.10 161.00 C 411.33 157.60 409.62 154.41 410.11 151.00 C 410.23 145.72 409.83 139.20 405.27 135.72 C 399.95 132.42 393.67 129.97 387.38 130.30 Z" opacity="1"/><path fill="#fff" d="M 506.13 91.17 C 524.38 91.12 542.63 91.17 560.87 91.13 C 560.71 130.76 560.94 170.40 560.99 210.02 C 561.02 212.05 561.97 213.94 562.00 215.98 C 561.84 245.66 561.61 275.35 562.08 305.03 C 567.67 304.44 573.09 307.13 578.64 305.71 C 588.48 303.64 595.94 296.31 603.80 290.57 C 604.50 288.47 604.09 286.17 604.20 284.00 C 604.14 219.72 604.21 155.44 604.16 91.16 C 621.40 91.12 638.64 91.19 655.88 91.12 C 655.92 178.04 655.89 264.97 655.89 351.89 C 638.65 351.92 621.39 351.94 604.15 351.88 C 604.09 342.21 604.37 332.52 604.04 322.86 C 599.57 326.01 596.26 330.54 592.23 334.22 C 584.63 340.26 576.60 346.03 567.40 349.39 C 557.64 353.74 546.75 354.61 536.20 353.70 C 527.93 352.10 519.47 348.71 514.47 341.58 C 511.65 335.51 510.52 328.83 509.81 322.23 C 508.37 317.51 509.93 312.47 508.24 307.79 C 507.95 300.23 508.34 292.62 507.93 285.05 C 507.59 283.04 506.84 281.08 507.00 279.02 C 507.47 253.01 506.89 226.99 507.04 200.97 C 507.20 198.25 505.79 195.74 505.97 193.02 C 506.39 159.07 506.02 125.11 506.13 91.17 Z" opacity="1"/><path fill="#fff" d="M 337.12 450.23 C 349.72 449.76 362.46 450.94 374.98 449.03 C 385.65 449.09 396.33 449.23 407.01 449.01 C 410.37 448.85 413.64 449.78 416.97 449.98 C 427.30 450.18 437.65 450.16 447.98 450.14 C 457.53 451.83 467.26 450.82 476.89 451.23 C 485.42 452.89 494.14 451.66 502.74 452.35 C 511.45 454.10 520.41 452.16 529.11 453.84 C 534.84 454.68 540.69 453.52 546.40 454.60 C 552.63 455.84 559.03 454.40 565.24 455.74 C 569.98 456.66 574.83 455.63 579.57 456.47 C 585.03 457.67 590.67 456.60 596.12 457.89 C 606.43 458.28 616.67 459.56 626.98 460.24 C 661.89 463.96 697.15 467.27 731.01 477.07 C 738.87 479.73 747.02 483.00 752.71 489.30 C 754.83 491.51 757.22 493.48 759.00 495.99 C 769.85 512.89 774.74 532.65 778.83 552.07 C 782.83 572.47 786.15 593.11 787.13 613.88 C 788.58 620.04 787.18 626.41 788.41 632.60 C 789.98 641.20 787.34 650.29 790.00 658.69 L 790.00 771.32 C 787.35 779.71 789.97 788.80 788.41 797.41 C 787.57 801.56 787.93 805.81 787.87 810.02 C 786.82 818.28 786.65 826.60 785.67 834.88 C 783.06 857.46 778.92 879.92 772.72 901.79 C 769.23 913.00 765.73 924.41 759.38 934.39 C 754.52 943.40 744.58 947.76 735.57 951.48 C 713.64 959.64 690.34 963.05 667.27 966.24 C 657.47 967.71 647.56 968.24 637.74 969.61 C 627.17 970.22 616.69 971.79 606.12 972.13 C 600.94 973.32 595.59 972.40 590.40 973.39 C 585.45 974.40 580.35 973.32 575.41 974.39 C 571.31 975.24 567.12 974.69 562.98 974.87 C 559.96 974.96 557.03 975.82 554.02 975.88 C 549.42 975.98 544.79 975.50 540.24 976.28 C 533.31 977.65 526.20 976.14 519.24 977.29 C 513.22 978.45 507.07 977.56 501.00 977.87 C 496.97 977.89 493.05 979.11 489.01 978.92 C 482.00 978.72 474.99 978.89 467.98 978.95 C 466.34 978.86 464.80 979.41 463.31 980.00 L 319.69 980.00 C 315.70 978.20 311.22 979.17 306.99 978.88 C 300.25 978.50 293.44 979.53 286.76 978.30 C 279.13 977.14 271.36 978.66 263.76 977.29 C 257.14 976.19 250.36 977.60 243.76 976.27 C 238.42 975.29 232.94 976.45 227.61 975.40 C 222.65 974.37 217.55 975.37 212.60 974.38 C 207.98 973.41 203.22 974.33 198.60 973.38 C 194.02 972.48 189.31 973.24 184.74 972.25 C 156.05 969.71 127.33 966.77 98.87 962.07 C 81.23 958.64 63.10 955.98 46.68 948.29 C 38.80 943.78 32.23 936.90 28.37 928.65 C 18.77 910.70 15.38 890.35 11.52 870.60 C 7.38 846.31 4.38 821.79 2.75 797.24 C 1.55 792.02 2.71 786.63 1.60 781.40 C 0.06 774.12 2.57 766.38 0.00 759.31 L 0.00 673.68 C 2.61 666.04 -0.06 657.71 1.85 649.89 C 2.37 634.02 4.05 618.24 5.50 602.42 C 8.45 578.65 11.50 554.79 17.66 531.60 C 20.52 520.77 23.69 509.91 29.03 500.00 C 31.58 494.58 35.88 490.23 40.46 486.49 C 51.64 479.19 64.81 475.93 77.60 472.70 C 89.56 469.76 101.74 467.98 113.87 465.92 C 143.76 461.70 173.80 458.69 203.88 456.89 C 209.71 455.47 215.74 456.74 221.60 455.60 C 226.94 454.54 232.41 455.71 237.76 454.73 C 244.07 453.40 250.54 454.74 256.89 453.84 C 264.81 452.28 272.92 453.81 280.89 452.82 C 288.84 451.31 296.97 452.72 304.98 451.93 C 315.60 450.02 326.50 452.27 337.12 450.23 M 82.99 554.00 C 82.73 568.32 82.74 582.67 82.98 596.99 C 100.93 597.26 118.90 596.97 136.86 597.12 C 136.79 637.08 136.85 677.04 136.83 717.00 C 136.93 768.97 136.64 820.96 136.97 872.92 C 154.62 873.05 172.28 873.05 189.93 872.92 C 190.17 781.00 189.81 689.05 190.11 597.13 C 207.72 596.95 225.34 597.28 242.94 596.98 C 243.04 582.65 243.19 568.30 242.97 553.98 C 241.31 553.82 239.65 553.82 237.99 553.82 C 186.33 553.98 134.65 553.63 82.99 554.00 M 430.98 553.99 C 430.63 607.65 430.94 661.33 430.83 715.00 C 430.93 767.64 430.63 820.29 430.98 872.92 C 440.97 873.07 450.97 873.04 460.96 872.94 C 464.87 871.63 468.95 872.17 472.99 872.12 C 474.74 872.35 475.89 870.92 476.86 869.70 C 477.92 865.25 475.51 859.95 478.14 856.03 C 486.59 863.53 496.32 870.17 507.60 872.48 C 515.08 874.99 523.08 874.28 530.83 873.97 C 546.52 869.31 560.25 855.70 562.10 839.00 C 562.31 830.66 562.09 822.32 562.01 813.98 C 562.05 811.61 563.22 809.40 563.04 807.02 C 562.98 797.34 562.98 787.65 563.03 777.97 C 563.20 775.25 561.79 772.73 561.97 770.02 C 562.23 746.69 562.28 723.36 561.94 700.04 C 560.27 694.49 561.46 688.68 561.17 683.00 C 561.50 677.06 560.17 671.27 559.71 665.39 C 559.00 658.00 554.28 651.87 549.34 646.66 C 543.73 640.99 536.44 637.24 528.83 635.09 C 525.50 635.11 522.29 634.04 518.99 633.94 C 514.77 634.61 510.49 635.12 506.37 636.30 C 502.41 637.29 498.99 639.61 495.31 641.28 C 489.11 644.10 484.06 648.86 478.04 651.97 C 477.89 619.31 478.14 586.64 477.92 553.99 C 462.28 553.76 446.62 553.74 430.98 553.99 M 650.39 631.40 C 646.85 632.45 643.07 631.27 639.56 632.47 C 634.84 633.83 629.89 634.93 625.77 637.74 C 612.29 645.45 600.49 656.90 594.19 671.28 C 591.17 677.43 591.20 684.40 589.91 691.00 C 589.57 698.31 590.17 705.64 589.94 712.96 C 589.06 716.41 588.38 720.08 589.40 723.60 C 590.37 726.64 589.94 729.86 589.96 733.01 C 589.75 752.68 589.81 772.35 589.99 792.03 C 592.35 801.87 589.34 812.20 591.84 822.06 C 591.64 835.70 597.00 849.56 607.23 858.77 C 614.77 867.01 625.01 872.27 635.61 875.43 C 644.20 877.79 653.40 879.22 662.22 877.30 C 675.11 876.36 688.18 873.19 699.19 866.22 C 700.92 864.57 702.86 863.18 704.78 861.78 C 707.01 858.38 710.11 855.62 712.02 852.00 C 713.65 848.93 715.11 845.77 716.73 842.69 C 721.31 832.74 722.69 821.74 724.15 811.01 C 724.31 807.87 723.65 804.65 724.63 801.60 C 725.37 799.16 725.25 796.58 725.03 794.08 C 709.78 793.98 694.51 793.88 679.26 794.13 C 676.83 797.75 678.66 802.31 677.16 806.22 C 676.33 814.15 675.69 822.56 671.60 829.62 C 668.21 834.83 661.54 835.03 656.07 836.00 C 651.72 834.77 646.77 835.06 643.27 831.74 C 637.54 826.03 637.25 817.49 636.10 810.00 C 636.20 793.04 635.78 776.07 636.12 759.12 C 665.41 758.82 694.72 759.23 724.01 758.93 C 724.31 740.63 724.09 722.31 724.15 704.01 C 724.46 699.93 722.49 696.09 723.12 691.99 C 723.77 687.57 721.97 683.38 722.08 678.99 C 721.50 672.12 718.16 665.98 715.02 659.99 C 709.29 650.64 701.33 642.53 691.57 637.41 C 685.47 634.81 678.98 633.35 672.43 632.50 C 668.25 631.13 663.80 632.57 659.61 631.39 C 656.59 630.72 653.40 630.71 650.39 631.40 M 262.99 636.07 C 262.60 651.71 263.19 667.37 262.97 683.02 C 262.79 685.40 263.92 687.61 264.00 689.97 C 263.77 718.65 263.75 747.32 264.00 776.00 C 264.08 780.69 263.50 785.48 264.94 790.04 C 265.01 801.35 264.71 812.68 264.85 823.99 C 264.93 826.86 264.65 829.79 265.40 832.61 C 266.59 836.62 265.36 840.83 265.97 844.92 C 267.07 849.28 267.04 853.90 268.89 858.07 C 270.23 861.48 273.29 863.70 275.72 866.30 C 278.99 869.74 283.27 872.03 287.84 873.23 C 290.85 874.59 294.21 873.76 297.35 874.55 C 308.12 874.42 318.43 870.13 327.45 864.48 C 333.50 859.86 339.81 855.51 345.34 850.27 C 347.07 849.42 347.71 851.92 347.74 853.18 C 347.91 859.19 350.00 864.98 350.03 871.02 C 354.41 871.58 358.91 870.41 363.20 871.77 C 370.08 872.50 377.04 871.99 383.94 872.14 C 387.57 872.99 391.29 873.36 395.01 872.99 C 395.33 848.00 395.05 822.99 395.15 798.00 C 395.05 744.03 395.34 690.04 395.01 636.07 C 379.67 635.91 364.32 635.91 348.98 636.07 C 348.57 696.59 349.09 757.14 348.73 817.66 C 345.91 820.63 342.01 822.30 338.77 824.76 C 332.18 829.50 323.89 833.76 315.63 831.34 C 312.00 830.19 311.59 826.14 311.16 822.94 C 310.86 813.97 311.87 804.84 310.02 796.01 C 310.36 764.34 310.04 732.67 310.12 701.00 C 310.04 679.36 310.29 657.70 310.00 636.07 C 294.33 635.91 278.65 635.91 262.99 636.07 Z" opacity="1"/><path fill="#fff" d="M 497.22 670.59 C 503.88 670.36 509.30 674.85 513.02 679.94 C 514.97 684.12 514.54 688.84 515.75 693.21 C 516.23 732.76 515.92 772.37 515.88 811.94 C 514.05 818.58 515.69 826.39 511.14 832.17 C 508.72 834.80 506.02 838.26 502.02 837.90 C 495.73 837.89 489.16 836.62 483.78 833.22 C 478.64 828.15 479.66 820.39 478.16 813.94 C 477.91 772.65 477.91 731.35 478.16 690.06 C 479.04 686.53 478.92 682.74 480.42 679.39 C 484.49 674.34 490.59 670.60 497.22 670.59 Z" opacity="1"/><path fill="#fff" d="M 644.96 673.99 C 651.02 671.54 658.10 671.22 664.14 673.92 C 669.72 675.63 672.84 680.99 674.84 686.10 C 678.79 697.63 677.74 709.88 677.87 721.88 C 663.96 721.86 650.04 721.91 636.13 721.85 C 635.80 712.26 636.13 702.65 636.17 693.06 C 637.59 686.24 638.36 677.93 644.96 673.99 Z" opacity="1"/></g></svg>